<svg width="13" height="15" viewBox="0 0 13 15" fill="none" xmlns="http://www.w3.org/2000/svg">
<path d="M10 1L12 3M12 1L10 3" stroke="#B8B8B8" stroke-width="0.25"/>
<path d="M4.50027 12.1499C4.59274 12.1499 4.66779 12.0749 4.66779 11.9824L4.66745 8.20365C4.66745 8.11118 4.59241 8.03613 4.49994 8.03613C4.40747 8.03613 4.33243 8.11118 4.33243 8.20365L4.33276 11.9824C4.33276 12.0749 4.40781 12.1499 4.50027 12.1499Z" fill="#B8B8B8"/>
<path d="M4.50036 12.15C4.54324 12.15 4.58612 12.1336 4.61896 12.1011L6.06392 10.6561C6.12925 10.5908 6.12925 10.4846 6.06392 10.4192C5.99859 10.3539 5.89238 10.3539 5.82706 10.4192L4.50069 11.7456L3.17433 10.4192C3.109 10.3539 3.0028 10.3539 2.93747 10.4192C2.87214 10.4846 2.87214 10.5908 2.93747 10.6561L4.38243 12.1011C4.41459 12.1336 4.45747 12.15 4.50036 12.15Z" fill="#B8B8B8"/>
<path d="M0.837789 14.9999H8.16244C8.6241 14.9999 9 14.6244 9 14.1624V4.68351C9 4.22151 8.6241 3.84595 8.16244 3.84595H2.84325C2.75078 3.84595 2.67573 3.92099 2.67573 4.01346C2.67573 4.10593 2.75078 4.18097 2.84325 4.18097H8.16244C8.4395 4.18097 8.66497 4.40644 8.66497 4.68351V14.1624C8.66497 14.4394 8.4395 14.6649 8.16244 14.6649H0.837789C0.560722 14.6649 0.335251 14.4394 0.335251 14.1624V6.762C0.335251 6.66954 0.260205 6.59449 0.167738 6.59449C0.0752716 6.59449 0.000226021 6.66954 0.000226021 6.762V14.1627C0.000226021 14.6244 0.375789 14.9999 0.837789 14.9999Z" fill="#B8B8B8"/>
<path d="M0.167782 6.92957H2.84329C2.93576 6.92957 3.0108 6.85452 3.0108 6.76206V4.08621C3.0108 3.99375 2.93576 3.9187 2.84329 3.9187C2.75082 3.9187 2.67578 3.99375 2.67578 4.08621V6.59421H0.167782C0.0753152 6.59421 0.00026989 6.66926 0.00026989 6.76172C0.00026989 6.85419 0.0749803 6.92957 0.167782 6.92957Z" fill="#B8B8B8"/>
<path d="M0.167712 6.92944C0.211266 6.92944 0.254819 6.91235 0.287651 6.87885L2.96316 4.13064C3.02748 4.06464 3.02614 3.9581 2.95981 3.89378C2.89381 3.82912 2.78761 3.83079 2.72295 3.89713L0.0474379 6.64534C-0.0168869 6.71134 -0.0155466 6.81788 0.0507882 6.8822C0.0832856 6.91369 0.125499 6.92944 0.167712 6.92944Z" fill="#B8B8B8"/>
</svg>
