<svg  viewBox="0 0 1440 68" fill="none" xmlns="http://www.w3.org/2000/svg">
<path d="M13.1597 43.5689C19.0705 40.4165 21.9602 39.6284 34.4384 39.6284H44.421V26.0993H34.4384C26.5574 26.0993 19.0705 26.6247 13.1597 30.0398V13.4897H53.3528V-0.039304H-0.237999V68H55.8485V54.3396H13.1597V43.5689ZM107.799 43.5689L127.108 68H145.497L117.125 31.8787L142.607 -0.039304H124.612L108.193 20.4513L92.1688 -0.039304H73.6484L98.7363 32.0101L69.8393 68H88.3596L107.799 43.5689ZM181.195 40.9419C183.954 39.7597 186.712 39.3657 189.733 39.3657C196.432 39.3657 203.131 41.2046 210.224 41.2046C212.982 41.2046 215.609 40.8105 218.236 39.497V68H231.634V-0.039304H218.236V25.7053C215.478 27.0188 212.588 27.4128 209.698 27.4128C202.868 27.4128 194.856 25.4426 189.208 25.4426C186.449 25.4426 183.691 25.968 181.195 27.1501V-0.039304H167.798V68H181.195V40.9419ZM276.501 68V-0.039304H263.103V68H276.501ZM321.527 13.4897H349.768C353.84 13.4897 356.598 15.46 356.598 19.1378C356.598 23.0783 354.496 25.0485 349.768 25.0485H342.806C334.925 25.0485 327.438 25.5739 321.527 28.989V13.4897ZM321.527 42.7808C327.438 39.6284 330.328 38.8403 342.806 38.8403H349.768C357.255 38.8403 360.407 41.4673 360.407 46.4586C360.407 53.0261 355.284 54.3396 349.768 54.3396H321.527V42.7808ZM373.936 46.7213C373.936 40.0224 371.046 33.849 365.924 30.8279C369.207 27.8069 370.39 23.6037 370.39 19.1378C370.39 7.71034 360.932 -0.039304 349.768 -0.039304H307.998V68H349.768C364.742 68 373.936 60.119 373.936 46.7213ZM413.623 68V-0.039304H400.226V68H413.623ZM498.449 13.4897V-0.039304H434.613V13.4897H459.306V68H472.835V13.4897H498.449ZM586.439 17.6929L577.507 49.8737L559.906 -0.039304H545.326L568.838 68H586.833L593.794 41.0732L602.332 68H620.59L644.496 -0.039304H630.047L611.789 49.8737L596.29 -0.039304H580.922L586.439 17.6929ZM679.53 68V-0.039304H666.132V68H679.53ZM764.356 13.4897V-0.039304H700.519V13.4897H725.213V68H738.742V13.4897H764.356ZM798.823 40.9419C801.581 39.7597 804.339 39.3657 807.36 39.3657C814.059 39.3657 820.758 41.2046 827.851 41.2046C830.609 41.2046 833.236 40.8105 835.863 39.497V68H849.261V-0.039304H835.863V25.7053C833.105 27.0188 830.215 27.4128 827.326 27.4128C820.495 27.4128 812.483 25.4426 806.835 25.4426C804.077 25.4426 801.318 25.968 798.823 27.1501V-0.039304H785.425V68H798.823V40.9419ZM929.788 68V-0.039304H916.39V68H929.788ZM952.747 -0.039304L959.446 10.0746V68H972.975V23.735L1010.8 68H1024.33V-0.039304H1010.8V47.2467L969.691 -0.039304H952.747ZM1089.45 13.4897C1102.58 13.4897 1110.07 20.4513 1110.07 33.7176C1110.07 46.8526 1102.58 54.3396 1089.45 54.3396H1075.92V13.4897H1089.45ZM1053.33 13.4897H1061.73V68H1089.45C1110.2 68 1123.86 54.6023 1123.86 33.4549C1123.86 11.7822 1109.94 -0.039304 1089.45 -0.039304H1047.28L1053.33 13.4897ZM1162.22 68V-0.039304H1148.82V68H1162.22ZM1255.18 29.2517H1229.05L1234.83 41.9927H1241.79V52.8947C1237.32 55.259 1232.33 56.4412 1227.47 56.4412C1214.47 56.4412 1201.46 49.3483 1201.46 33.9803C1201.46 18.6124 1214.2 11.3881 1227.34 11.3881C1233.77 11.3881 1240.47 13.227 1245.6 16.7735L1254.66 6.26549C1247.17 0.617445 1237.32 -2.27226 1227.34 -2.27226C1206.98 -2.27226 1187.15 10.6 1187.15 33.7176C1187.15 56.7039 1206.59 70.1016 1227.21 70.1016C1237.58 70.1016 1247.7 66.8178 1255.18 60.3817V29.2517ZM1295.49 43.5689C1301.4 40.4165 1304.29 39.6284 1316.77 39.6284H1326.75V26.0993H1316.77C1308.89 26.0993 1301.4 26.6247 1295.49 30.0398V13.4897H1335.68V-0.039304H1282.09V68H1338.18V54.3396H1295.49V43.5689ZM1448.99 -0.039304H1432.44L1403.41 38.4462L1374.38 -0.039304H1357.83L1364.53 10.8627V68H1379.37V28.2009L1403.41 60.2503L1427.44 28.2009V68H1442.29V10.8627L1448.99 -0.039304Z" fill="white"/>
</svg>
