<svg width="80" height="103" viewBox="0 0 80 103" fill="none" xmlns="http://www.w3.org/2000/svg">
<path opacity="0.2" d="M38.3032 1.20695L41.8333 4.72208L42.919 7.84431V7.8743L42.9403 7.89529L45.5818 10.7836L46.528 13.063L48.1749 16.5152V16.5332L50.2523 19.1155L51.2925 23.5184V23.5664L51.332 23.5994L53.9614 25.7499L53.9766 31.2295V31.2925L54.022 31.3375L55.59 32.7921L57.6674 34.9456L58.5773 39.1925V39.2195L58.5955 39.2435L60.8064 42.5427L63.0749 49.8309V49.8519V49.8729L64.9613 52.5722L65.765 59.1706V59.1856V59.2066L67.2995 62.6047L69.5468 68.9872L70.854 72.3763L71.1421 76.1164V76.1734L71.1815 76.2124L73.1194 78.0899L73.2286 82.2889V82.3519L73.2771 82.3939L74.3538 83.3866L75.1635 87.9785V88.0085L76.3584 91.0077L76.3281 92.2944V92.3424L76.3554 92.3844L77.5443 94.097L77.5776 95.8395V95.8665V95.8935L78.8302 98.9558L78.7786 101.244L75.8368 101.844L74.6025 100.911L74.5812 100.896H74.557L72.9921 100.38L71.8517 99.4806L71.8244 99.4596H71.7881L68.0244 98.6678L65.0614 97.1532H65.0401H65.0189L62.162 96.6193L60.861 96.4664L58.55 95.7765H58.5288H55.3079H51.4745L49.4062 95.0777H49.3849H49.3607L37.7421 94.8138H37.7178H37.6905L36.1499 95.3267L29.9843 95.1857L27.2123 95.3956H27.1789L27.1516 95.4106L25.6353 96.1784L23.1393 96.0975H23.0695L23.024 96.1484L22.3022 96.9373L18.7236 96.8563H18.672L18.6326 96.8863L17.2193 97.876L15.4724 98.7968H13.2039L13.1705 98.8148L11.5025 99.6906L8.46973 100.29H8.4485L5.90703 101.529L1.8977 101.697L1.1577 97.1112L2.57401 93.866V93.833V93.8L2.30409 87.5826L4.50286 84.5473L4.52409 84.5173V84.4783L5.04572 80.5283L5.94039 78.5908L7.12014 76.9232L7.14137 76.8932V76.8602L7.97842 71.6385L9.79505 68.4323L9.81022 68.3993V68.3663L10.1135 61.72L11.7482 58.8017V58.7837V58.7657L13.3646 52.5872L15.2116 51.4475L15.2783 51.4055V51.3305L15.6847 45.596L17.4437 43.5895L17.4771 43.5505V43.4995L17.7258 38.8566L18.8843 37.357L20.5311 34.6907V34.6727V34.6517L21.7836 30.0118L25.3684 24.9761V24.9551V24.9311L26.4753 21.152L28.5103 19.0915L28.5437 19.0585V19.0105L29.2048 15.2165L31.1246 12.2982V12.2802V12.2592L32.2376 8.76808L34.4091 6.85455L34.4364 6.82756V6.79157L35.5009 3.72033L38.3032 1.20695ZM38.3032 1L35.3644 3.63635L34.2847 6.74358L32.0829 8.6841L31.0063 12.2172L29.0653 15.1595L28.4011 18.9955L26.3389 21.095L25.244 24.8891L21.6714 29.9308L20.4098 34.5917L18.766 37.258L17.5802 38.7906L17.3285 43.4785L15.5573 45.548L15.1449 51.3305L13.2494 52.5033L11.6117 58.7267L9.96186 61.678L9.65858 68.3573L7.85711 71.5905L7.014 76.8362L5.82515 78.5158L4.91532 80.4863L4.39065 84.4603L2.14942 87.5376L2.4345 93.806L1 97.0932L1.75819 101.892L5.93736 101.715L8.50612 100.464L11.5389 99.8495L13.2282 98.9498H15.4936L17.286 98.005L18.6902 97.0002L22.3295 97.0842L23.0998 96.2444L25.6595 96.3014L27.2002 95.5156L29.9752 95.3057L36.1529 95.4466L37.7178 94.9248L49.3364 95.1887L51.426 95.8965H55.2867H58.4833L60.7942 96.5833L62.1074 96.7393L64.9916 97.2762L67.9728 98.8028L71.7911 99.5826L72.9526 100.5L74.5448 101.025L75.8338 102L78.9424 101.382L79 98.9408L77.7293 95.8515L77.6959 94.052L76.4828 92.3004L76.5131 90.9837L75.303 87.9785L74.5267 83.3296L73.4197 82.2799L73.3075 78.0209L71.3271 76.0984L71.0238 72.3373L69.7106 68.9272L67.4633 62.5508L65.9257 59.1376L65.1159 52.5093L63.2083 49.7889L60.9337 42.4827L58.7077 39.1596L57.7979 34.8676L55.6749 32.6872L54.1282 31.2295L54.113 25.6779L51.4594 23.4944L50.413 19.0615L48.3113 16.4522L46.6706 12.997L45.7153 10.6996L43.0677 7.79332L41.9728 4.6411L38.3032 1Z" fill="black" stroke="black" stroke-width="0.5"/>
</svg>
