<svg width="55" height="83" viewBox="0 0 55 83" fill="none" xmlns="http://www.w3.org/2000/svg">
<path d="M7.32861 82.814V77.1797H8.43826V82.814H7.32861Z" fill="black"/>
<path d="M11.2324 77.1797L14.3675 80.9771V77.1797H15.4857V82.814H14.3675L11.2346 79.1487V82.814H10.1143V78.0172V77.1797H11.2324Z" fill="black"/>
<path d="M17.2025 77.1797H19.4942C21.1981 77.1797 22.3418 78.1578 22.3418 79.95C22.3418 81.7016 21.2109 82.8118 19.4942 82.8118H17.1982V78.2984L17.2025 77.1797ZM18.3739 78.2984V81.6824H19.4942C20.5804 81.6824 21.1981 81.0623 21.1981 79.9777C21.1981 78.893 20.5783 78.3006 19.4942 78.3006L18.3739 78.2984Z" fill="black"/>
<path d="M23.7007 82.814V77.1797H24.8103V82.814H23.7007Z" fill="black"/>
<path d="M32.9312 76.6341C32.6224 76.3198 32.2536 76.0708 31.8468 75.9017C31.44 75.7326 31.0034 75.6469 30.5629 75.6496C28.7567 75.6496 27.3681 76.9431 27.3681 78.7715C27.3681 80.5231 28.8781 81.806 30.5756 81.806C31.3565 81.8101 32.1127 81.5325 32.7055 81.0239V79.5493H31.1486V78.3751H33.879V81.5311C33.4608 81.9957 32.9492 82.3667 32.3777 82.6197C31.8062 82.8727 31.1878 83.0021 30.5629 82.9993C29.9874 83.0074 29.4163 82.8999 28.883 82.6834C28.3498 82.4668 27.8654 82.1455 27.4584 81.7385C27.0514 81.3314 26.73 80.8469 26.5133 80.3135C26.2966 79.7801 26.1889 79.2087 26.1967 78.633C26.1967 76.2378 28.2413 74.4541 30.5692 74.4541C31.7376 74.4496 32.8599 74.9095 33.6895 75.7327L32.9312 76.6341Z" fill="black"/>
<path d="M47.7933 78.0811V82.814H46.5644V79.5174L44.5751 82.1726L42.5837 79.5174V82.814H41.3569V78.0811V77.1797H42.5901L44.5815 80.0352L46.5708 77.1797H47.7976L47.7933 78.0811Z" fill="black"/>
<path d="M7.87536 74.257L7.00488 75.1279L7.87536 75.9989L8.74585 75.1279L7.87536 74.257Z" fill="black"/>
<path d="M24.2601 74.257L23.3896 75.1279L24.2601 75.9989L25.1306 75.1279L24.2601 74.257Z" fill="black"/>
<path d="M36.5411 81.6824V80.4614H39.1289V79.3448H36.5411V78.2984H39.8679V77.1797H35.4336V82.814H40.0766V81.6824H36.5411Z" fill="black"/>
<path d="M26.1821 0.884353L28.2161 2.93222L28.9403 5.03549L28.9829 5.15908L29.0681 5.25711L30.8529 7.23891L31.4812 8.76895V8.78387V8.79878L32.6504 11.2515L32.6824 11.3176L32.7271 11.3773L34.1115 13.1183L34.8144 16.1293L34.8634 16.3424L35.0295 16.4809L36.6822 17.849L36.6929 21.4909V21.7657L36.891 21.9533L37.9559 22.9783L39.2998 24.3868L39.9004 27.2551L39.9239 27.3745L39.992 27.4768L41.5042 29.7612L43.0739 34.8755L43.1037 34.9693L43.1612 35.0502L44.4093 36.853L44.9588 41.4048L44.9694 41.5007L45.0099 41.5881L46.0748 43.9875L47.6445 48.4945L48.5327 50.8386L48.7307 53.4192L48.7499 53.6579L48.9203 53.8262L50.1258 55.011L50.1982 57.7813V58.0498L50.3941 58.2331L51.0182 58.8148L51.5294 61.9026L51.54 61.9687L51.5656 62.0326L52.3941 64.057L52.3749 64.8625V65.0756L52.492 65.2461L53.2375 66.3308L53.2567 67.4112V67.5284L53.3014 67.6392L54.1405 69.7126L54.115 70.8037L52.705 71.0892L52.0299 70.5735L51.9447 70.5096L51.8446 70.4755L50.8329 70.1388L50.1066 69.5571L49.9873 69.4612L49.8383 69.4292L47.242 68.8922L45.225 67.8501L45.142 67.8075L45.0504 67.7905L43.0505 67.4112H43.0313H43.0079L42.141 67.3068L40.5735 66.8358L40.4819 66.8081H38.139H35.5343L34.1648 66.3393L34.0711 66.3073H33.9731L25.8137 66.1198H25.7008L25.5943 66.156L24.6018 66.4906L20.3762 66.3926H20.3123L18.3635 66.5417L18.2357 66.5524L18.1207 66.6099L17.1814 67.0958L15.5478 67.034H15.2539L15.058 67.2471L14.7151 67.6264L12.4468 67.5752H12.2338L12.0592 67.701L11.1071 68.3893L10.0294 68.9646H8.43843L8.30638 69.0435L7.20099 69.6316L5.15208 70.0578L5.07115 70.0727L4.9966 70.1111L3.31403 70.9401L1.08409 71.0359L0.66025 68.3573L1.59525 66.1923L1.65276 66.0559V65.9088L1.4632 61.6789L2.89232 59.6672L2.98604 59.5372L3.00733 59.3774L3.36302 56.6519L3.93807 55.3925L4.73889 54.246L4.82409 54.1246L4.84752 53.9797L5.42044 50.357L6.63232 48.16L6.70474 48.03V47.8808L6.90707 43.2843L7.99542 41.3195L8.03376 41.2492L8.05506 41.1704L9.13914 36.9958L10.2573 36.2968L10.5321 36.1242L10.5555 35.7982L10.8281 31.9007L11.9441 30.6008L12.0868 30.4345V30.2214L12.2551 27.0868L12.992 26.1534L13.0133 26.1278L13.0304 26.098L14.1847 24.2036L14.2337 24.1247L14.2572 24.0374L15.1091 20.8409L17.5478 17.3419L17.6095 17.2523L17.6393 17.1479L18.3656 14.5908L19.701 13.2248L19.8395 13.082L19.8735 12.886L20.3165 10.2969L21.6072 8.31505L21.6562 8.24047L21.6839 8.1531L22.3953 5.80903L23.8095 4.54749L23.9351 4.43668L23.9884 4.27899L24.6934 2.22687L26.1843 0.87583L26.1821 0.884353ZM26.197 0L24.1332 1.87312L23.375 4.08081L21.8287 5.45955L21.0726 7.96984L19.7095 10.0603L19.2431 12.7858L17.7948 14.2775L17.0259 16.9732L14.517 20.5554L13.631 23.8669L12.4766 25.7613L11.6438 26.8502L11.4671 30.181L10.2232 31.6513L9.93357 35.7598L8.60242 36.5931L7.45231 41.0148L6.29368 43.1117L6.08069 47.8595L4.81557 50.1546L4.22347 53.8816L3.38858 55.075L2.74962 56.475L2.38116 59.2986L0.807209 61.4849L1.00741 65.9387L0 68.2742L0.53246 71.6838L3.46738 71.558L5.27135 70.6694L7.40119 70.2326L8.58751 69.5933H10.1785L11.4372 68.922L12.4234 68.2081L14.9792 68.2678L15.5201 67.6711L17.3177 67.7116L18.3997 67.1533L20.3485 67.0042L24.687 67.1043L25.786 66.7335L33.9454 66.921L35.4129 67.424H38.1241H40.369L41.9919 67.9119L42.9142 68.0228L44.9396 68.4042L47.0333 69.4889L49.7147 70.0429L50.5305 70.695L51.6486 71.0679L52.5538 71.7605L54.7369 71.3215L54.7774 69.5869L53.885 67.392L53.8615 66.1134L53.0096 64.8689L53.0309 63.9334L52.1811 61.7982L51.6358 58.4952L50.8585 57.7493L50.7796 54.7234L49.3889 53.3574L49.1759 50.6852L48.2537 48.2623L46.6754 43.7318L45.5956 41.3068L45.027 36.5973L43.6873 34.6645L42.0899 29.4735L40.5266 27.1124L39.8876 24.0629L38.3968 22.5137L37.3105 21.4781L37.2999 17.5336L35.4363 15.9823L34.7015 12.8327L33.2255 10.9788L32.0733 8.52389L31.4024 6.89156L29.543 4.82665L28.7741 2.587L26.197 0Z" fill="black"/>
</svg>
