<svg width="25" height="32" viewBox="0 0 25 32" fill="none" xmlns="http://www.w3.org/2000/svg">
<path id="logoSite" d="M11.9934 1.36971L12.8474 2.22584L13.1515 3.10512L13.1694 3.15679L13.2051 3.19777L13.9545 4.02628L14.2184 4.66592V4.67216V4.6784L14.7093 5.70379L14.7227 5.7314L14.7415 5.75635L15.3228 6.48419L15.6179 7.74298L15.6385 7.83207L15.7082 7.88998L16.4022 8.46192L16.4067 9.98441V10.0993L16.4898 10.1777L16.937 10.6062L17.5013 11.1951L17.7535 12.3942L17.7633 12.4441L17.7919 12.4869L18.4268 13.4419L19.0859 15.58L19.0984 15.6192L19.1226 15.653L19.6466 16.4067L19.8774 18.3096L19.8818 18.3497L19.8988 18.3862L20.346 19.3893L21.0051 21.2735L21.378 22.2535L21.4611 23.3323L21.4692 23.4321L21.5407 23.5024L22.0469 23.9978L22.0773 25.1559V25.2682L22.1596 25.3448L22.4216 25.588L22.6362 26.8788L22.6407 26.9065L22.6514 26.9332L22.9993 27.7795L22.9913 28.1163V28.2053L23.0404 28.2766L23.3534 28.7301L23.3615 29.1817V29.2307L23.3803 29.2771L23.7326 30.1439L23.7219 30.6L23.1299 30.7194L22.8464 30.5038L22.8106 30.4771L22.7686 30.4628L22.3438 30.322L22.0388 30.0788L21.9888 30.0387L21.9262 30.0254L20.836 29.8009L19.9892 29.3653L19.9543 29.3474L19.9158 29.3403L19.0761 29.1817H19.068H19.0582L18.6942 29.1381L18.036 28.9412L17.9976 28.9296H17.0139H15.9202L15.3452 28.7336L15.3058 28.7203H15.2647L11.8387 28.6419H11.7913L11.7466 28.657L11.3298 28.7969L9.55558 28.7559H9.52875L8.71049 28.8183L8.65683 28.8227L8.60854 28.8468L8.21416 29.0499L7.52825 29.0241H7.40484L7.32256 29.1131L7.17858 29.2717L6.22618 29.2503H6.13675L6.06342 29.3029L5.66367 29.5906L5.21117 29.8312H4.54314L4.48769 29.8641L4.02356 30.11L3.16326 30.2882L3.12928 30.2944L3.09798 30.3105L2.3915 30.657L1.45519 30.6971L1.27723 29.5773L1.66982 28.6722L1.69396 28.6151V28.5537L1.61437 26.7853L2.21443 25.9443L2.25378 25.89L2.26272 25.8232L2.41207 24.6837L2.65352 24.1572L2.98977 23.6779L3.02555 23.6272L3.03538 23.5666L3.27594 22.0521L3.78479 21.1336L3.81519 21.0793V21.0169L3.90015 19.0953L4.35713 18.2739L4.37323 18.2445L4.38217 18.2116L4.83736 16.4664L5.30685 16.1742L5.42222 16.102L5.43205 15.9657L5.54652 14.3363L6.01513 13.7929L6.07504 13.7234V13.6343L6.14569 12.3238L6.45511 11.9336L6.46405 11.9229L6.47121 11.9105L6.95591 11.1185L6.97648 11.0855L6.98631 11.049L7.34403 9.7127L8.36798 8.24989L8.39391 8.21247L8.40643 8.16882L8.71138 7.09978L9.27209 6.52873L9.33022 6.46904L9.34453 6.38708L9.53054 5.30468L10.0725 4.47617L10.093 4.44499L10.1047 4.40846L10.4034 3.42851L10.9972 2.90111L11.0499 2.85479L11.0723 2.78886L11.3683 1.93096L11.9934 1.36971ZM11.9997 1L11.1331 1.78307L10.8147 2.70601L10.1655 3.28241L9.84801 4.33185L9.27567 5.20579L9.07982 6.34521L8.47171 6.96882L8.14888 8.09577L7.09542 9.59332L6.72339 10.9777L6.2387 11.7697L5.88903 12.2249L5.81481 13.6174L5.29255 14.2321L5.17092 15.9497L4.612 16.298L4.12909 18.1465L3.6426 19.0232L3.55317 21.008L3.02197 21.9675L2.77336 23.5256L2.4228 24.0245L2.15452 24.6098L1.99981 25.7902L1.33893 26.7042L1.42299 28.5661L1 29.5425L1.22357 30.9679L2.45589 30.9154L3.21334 30.5439L4.10762 30.3612L4.60574 30.094H5.27377L5.80229 29.8134L6.21634 29.5149L7.28947 29.5399L7.51662 29.2904L8.27139 29.3073L8.72569 29.0739L9.54396 29.0116L11.3656 29.0535L11.8271 28.8984L15.253 28.9768L15.8692 29.1871H17.0076H17.9502L18.6316 29.3911L19.0189 29.4374L19.8693 29.5969L20.7484 30.0503L21.8743 30.282L22.2168 30.5546L22.6863 30.7105L23.0664 31L23.983 30.8165L24 30.0913L23.6253 29.1737L23.6155 28.6392L23.2577 28.1189L23.2667 27.7278L22.9099 26.8352L22.6809 25.4543L22.3545 25.1425L22.3214 23.8775L21.7375 23.3065L21.648 22.1893L21.2608 21.1764L20.5982 19.2824L20.1448 18.2686L19.906 16.2998L19.3435 15.4918L18.6728 13.3216L18.0164 12.3345L17.7481 11.0597L17.1221 10.412L16.666 9.97906L16.6615 8.33007L15.879 7.68151L15.5705 6.36481L14.9508 5.58976L14.467 4.56347L14.1853 3.88107L13.4046 3.01782L13.0817 2.08151L11.9997 1Z" fill="white" stroke="white" stroke-width="0.5"/>
</svg>
