<svg width="75" height="17" viewBox="0 0 75 17" fill="none" xmlns="http://www.w3.org/2000/svg">
<path d="M1.40137 15.6637V5.38412H3.41942V15.6637H1.40137Z" fill="white"/>
<path d="M8.50083 5.38412L14.2025 12.3123V5.38412H16.236V15.6637H14.2025L8.5047 8.97654V15.6637H6.46729V6.91206V5.38412H8.50083Z" fill="white"/>
<path d="M19.3578 5.38412H23.5256C26.6244 5.38412 28.7044 7.16866 28.7044 10.4384C28.7044 13.6342 26.6476 15.6598 23.5256 15.6598H19.3501V7.42526L19.3578 5.38412ZM21.4882 7.42526V13.5992H23.5256C25.5011 13.5992 26.6244 12.4678 26.6244 10.4889C26.6244 8.50998 25.4972 7.42915 23.5256 7.42915L21.4882 7.42526Z" fill="white"/>
<path d="M31.1758 15.6637V5.38412H33.1938V15.6637H31.1758Z" fill="white"/>
<path d="M47.9633 4.38895C47.4016 3.81557 46.7309 3.36116 45.9911 3.05263C45.2512 2.7441 44.4572 2.58772 43.6561 2.59275C40.3714 2.59275 37.8459 4.95269 37.8459 8.2885C37.8459 11.4843 40.5922 13.8249 43.6793 13.8249C45.0994 13.8324 46.4746 13.3258 47.5527 12.398V9.70757H44.7213V7.56535H49.687V13.3233C48.9264 14.171 47.996 14.8478 46.9566 15.3094C45.9173 15.7711 44.7926 16.0071 43.6561 16.0021C42.6096 16.0167 41.5708 15.8207 40.6011 15.4256C39.6314 15.0305 38.7504 14.4443 38.0102 13.7017C37.2699 12.959 36.6855 12.075 36.2914 11.1019C35.8973 10.1287 35.7015 9.08617 35.7156 8.03578C35.7156 3.6658 39.434 0.411651 43.6677 0.411651C45.7925 0.403403 47.8336 1.24247 49.3422 2.74438L47.9633 4.38895Z" fill="white"/>
<path d="M74.9926 7.0287V15.6637H72.7576V9.64913L69.1398 14.4934L65.5182 9.64913V15.6637H63.2871V7.0287V5.38412H65.5298L69.1515 10.5939L72.7692 5.38412H75.0003L74.9926 7.0287Z" fill="white"/>
<path d="M2.39657 0.0517762L0.813477 1.64081L2.39657 3.22984L3.97967 1.64081L2.39657 0.0517762Z" fill="white"/>
<path d="M32.1935 0.0527364L30.6104 1.64172L32.1934 3.23071L33.7765 1.64172L32.1935 0.0527364Z" fill="white"/>
<path d="M54.5288 13.5992V11.3715H59.235V9.33422H54.5288V7.42526H60.5791V5.38412H52.5146V15.6637H60.9587V13.5992H54.5288Z" fill="white"/>
</svg>
