<svg width="1440" height="159" viewBox="0 0 1440 159" fill="none" xmlns="http://www.w3.org/2000/svg">
<path d="M0 159H1440L1439.89 135.832C1439.89 136.282 1439.79 136.727 1439.6 137.133C1439.4 137.543 1439.11 137.904 1438.76 138.187C1438.4 138.47 1437.99 138.669 1437.55 138.768C1437.1 138.867 1436.64 138.864 1436.2 138.76L1376.51 124.93C1371.04 123.662 1365.71 121.846 1360.6 119.51L1313.31 97.9398C1311.96 97.3275 1310.56 96.8422 1309.12 96.4899L1264.1 85.4698C1262.89 85.1716 1261.7 84.7772 1260.55 84.2899L1197.02 57.5499C1190.88 54.9683 1184.55 52.8424 1178.1 51.1898L1144.32 42.5399C1138.53 41.0514 1132.64 40.0083 1126.69 39.4199L1094.44 36.2199H1093.96C1092.83 36.1069 1091.71 35.9132 1090.61 35.6399L1069.17 30.2999C1057.86 27.4794 1046.28 25.8604 1034.63 25.4699L994.14 24.1099C992.887 24.0699 991.64 23.9294 990.41 23.6898L957.92 17.3699C956.818 17.1566 955.701 17.023 954.58 16.9699L917.36 15.0999C916.63 15.0701 915.902 15 915.18 14.8899L865.46 7.7699H865.13L801.13 0.579836C800.254 0.479983 799.372 0.430056 798.49 0.429934H657.95C656.31 0.429202 654.674 0.6001 653.07 0.939822L616.2 8.69983C614.922 8.96546 613.624 9.1261 612.32 9.17993L580.86 10.4999C580.13 10.4999 579.4 10.5999 578.68 10.6998L532.5 16.9299C531.69 17.0399 530.87 17.1099 530.05 17.1399L504.21 17.9199C490.863 18.3234 477.64 20.6057 464.93 24.6998L454.03 28.2098C452.208 28.8009 450.321 29.1671 448.41 29.2999L417.07 31.5199C411.22 31.9326 405.445 33.0783 399.88 34.9299L373.46 43.7098C372.675 43.9707 371.877 44.191 371.07 44.3699L314.53 56.7599C304.4 58.9724 294.554 62.3271 285.18 66.7599L282.65 67.9598L282.39 68.0798C280.989 68.7462 279.525 69.2722 278.02 69.6499L233.28 80.8298C228.38 82.05 223.621 83.7795 219.08 85.9899L199.08 95.7098C197.214 96.6337 195.233 97.3062 193.19 97.7098L146.25 106.71C144.924 106.963 143.622 107.331 142.36 107.81L98.1 124.51C93.5499 126.19 88.8278 127.36 84.02 128L23.66 136.32C22.8705 136.426 22.0762 136.493 21.28 136.52L3.12 137.18C2.71606 137.196 2.31301 137.13 1.93507 136.987C1.55712 136.843 1.21209 136.625 0.920675 136.345C0.629264 136.065 0.397492 135.728 0.239279 135.356C0.0816934 134.986 0.000324098 134.587 1.91573e-06 134.185L0 159Z" fill="white"/>
</svg>
