<svg width="1440" height="900" viewBox="0 0 1440 900" fill="none" xmlns="http://www.w3.org/2000/svg">
<circle cx="465.233" cy="462.587" r="44.7325" stroke="white"/>
<path d="M479.903 462.587L457.898 474.812L457.898 450.362L479.903 462.587Z" fill="white"/>
<path fill-rule="evenodd" clip-rule="evenodd" d="M1440 0H0V900H1440V0ZM482.711 815.443L476.289 825.199C475.61 826.268 475.055 827.41 474.634 828.604L468.352 845.358L452.098 857.809L434.729 838.245L425.854 808.476C425.432 807.053 424.822 805.693 424.041 804.432L414.449 788.907C413.878 787.991 413.4 787.021 413.023 786.01L406.398 768.545C405.887 767.186 405.201 765.898 404.357 764.716L389.301 743.638C389.08 743.315 388.807 742.915 388.585 742.541L378.677 726.104C378.127 725.194 377.492 724.339 376.781 723.549L366.658 712.271L349.148 693.951C348.7 693.487 348.281 692.996 347.893 692.48L330.771 669.855C330.307 669.239 329.801 668.657 329.256 668.112L264.976 603.832C264.508 603.362 264.013 602.922 263.492 602.513L250.833 592.541C250.522 592.307 250.161 592.009 249.856 591.705L243.428 585.796C242.307 584.764 241.051 583.888 239.694 583.191L229.501 577.98C228.156 577.292 226.909 576.429 225.792 575.413L214.071 564.668C212.799 563.506 211.359 562.544 209.798 561.815L199.415 556.984C198.246 556.441 197.145 555.764 196.131 554.969L183.332 544.946C181.849 543.785 180.182 542.881 178.4 542.271L167.744 538.626C166.406 538.167 165.133 537.541 163.953 536.762L152.948 529.561C151.897 528.866 150.772 528.29 149.594 527.843L137.772 523.399C136.595 522.951 135.472 522.373 134.424 521.675L122.367 513.75C121.57 513.229 120.73 512.775 119.857 512.394L102.861 504.971C101.225 504.256 99.7123 503.287 98.3793 502.099L81.0477 486.466L96.4521 467.005L122.652 451.366C123.437 450.903 124.179 450.373 124.871 449.781L150.875 427.948C152.16 426.89 153.593 426.025 155.128 425.381L177.779 415.79C178.768 415.367 179.714 414.847 180.6 414.237L203.415 398.876C204.873 397.898 206.475 397.151 208.163 396.664L226.414 391.472C228.164 390.955 229.819 390.156 231.314 389.108L253.66 373.621C254.811 372.825 256.057 372.176 257.368 371.687L280.608 363.028C282.24 362.419 283.767 361.559 285.134 360.479L307.848 342.622C309.322 341.454 310.983 340.543 312.761 339.927L340.001 330.539C341.401 330.052 342.731 329.382 343.957 328.548L363.526 315.318C364.885 314.403 366.369 313.688 367.932 313.195L389.929 306.336C391.652 305.791 393.278 304.978 394.747 303.927L415.35 289.093C416.416 288.328 417.567 287.687 418.779 287.185L440.047 278.443C440.898 278.088 441.721 277.669 442.507 277.188L468.352 261.194C469.586 260.428 470.913 259.825 472.302 259.4L497.843 251.609C498.853 251.303 499.831 250.902 500.765 250.411L534.458 232.718C535.97 231.928 537.592 231.371 539.27 231.063L567.321 225.935C569.139 225.61 570.89 224.983 572.5 224.077L591.93 213.231C593.269 212.489 594.702 211.93 596.19 211.57L613.934 207.303C615.263 206.981 616.549 206.5 617.763 205.871L633.814 197.516C635.17 196.805 636.619 196.286 638.118 195.975L657.745 191.842C658.946 191.594 660.116 191.212 661.231 190.701L682.081 181.262C683.626 180.564 685.267 180.103 686.95 179.892L703.324 177.845C704.26 177.734 705.185 177.543 706.088 177.274L725.347 171.556C727.222 170.973 729.186 170.726 731.147 170.827L749.468 172.006L749.258 193.845C749.253 195.384 749.029 196.915 748.593 198.39L742.406 219.792C742.222 220.427 742.076 221.073 741.968 221.725L738.634 241.707C738.57 242.1 738.488 242.499 738.393 242.886L732.897 265.574C732.696 266.421 732.426 267.25 732.092 268.053L723.679 288.434C723.282 289.394 722.974 290.389 722.76 291.407L719.4 307.521C719.174 308.575 718.851 309.607 718.437 310.602L707.058 337.677C706.893 338.07 706.747 338.469 706.608 338.875L697.764 365.405C697.593 365.906 697.403 366.4 697.188 366.895L686.69 390.629C686.31 391.489 686.005 392.38 685.777 393.292L680.154 415.397C679.909 416.363 679.578 417.305 679.165 418.211L662.214 455.448C661.942 456.042 661.705 456.652 661.504 457.274L653.187 483.037C652.885 483.975 652.501 484.885 652.039 485.756L628.47 530.334C628.208 530.826 627.973 531.332 627.766 531.849L616.159 560.281C615.815 561.107 615.411 561.905 614.948 562.671L600.076 587.102C599.503 588.032 599.027 589.017 598.656 590.044L586.764 622.336C586.369 623.417 585.864 624.453 585.255 625.43L567.568 653.779C566.929 654.804 566.4 655.894 565.99 657.031L561.235 670.381C560.748 671.762 560.078 673.07 559.245 674.274L545.07 694.788C544.141 696.144 543.413 697.628 542.909 699.193L539.2 710.788C538.8 712.045 538.251 713.25 537.565 714.376L525.685 734.002C525.211 734.795 524.803 735.627 524.468 736.487L518.046 752.545C517.6 753.66 517.037 754.725 516.366 755.721L504.816 772.812C504.25 773.652 503.76 774.541 503.351 775.468L497.944 787.81C497.394 789.063 496.694 790.245 495.858 791.329L490.09 798.796C489.015 800.177 488.165 801.72 487.573 803.367L484.479 811.912C484.034 813.156 483.44 814.342 482.711 815.443Z" fill="white"/>
</svg>
