<svg width="361" height="8" viewBox="0 0 361 8" fill="none" xmlns="http://www.w3.org/2000/svg">
<path d="M138.618 5.74936L123.411 3.87332L114.217 5.74936L106.083 4.49867L0.000106784 4.49867" stroke="white"/>
<path d="M360 4.49862L353.988 3.24791L345.501 4.18593L341.61 3.24791L336.306 4.81127L333.123 3.87325L324.989 4.81127L314.38 3.87325L310.843 5.74929L300.941 3.24791L295.283 6.37463L286.795 4.81127L251.077 4.81127C246.362 3.35213 236.719 0.558921 235.871 1.0592C235.022 1.55947 230.094 2.72681 227.737 3.24794C221.725 2.83104 209.63 1.99725 209.347 1.99725C209.064 1.99725 202.864 3.03949 199.799 3.56061L189.189 1.99725L177.873 7.00001L164.434 1.99725L157.715 6.06199L146.752 4.49863L138.618 5.74932" stroke="white" stroke-opacity="0.4"/>
</svg>
