<svg  viewBox="0 0 1440 65" fill="none" xmlns="http://www.w3.org/2000/svg">
<path d="M73.8139 -0.112599H59.107L36.6067 51.8015L14.6092 -0.112599H0.0280002L28.3105 65H45.0286L73.8139 -0.112599ZM123.989 43.3796C110.539 43.3796 101.74 46.8992 97.5918 49.0361L113.053 19.2452L125.749 43.3796H123.989ZM106.391 6.5495L75.2172 65H88.7928L89.1699 64.2458C91.3068 61.4804 108.025 55.1954 124.115 55.1954H131.908L137.062 65H151.266L116.07 -1.621H102.117L106.391 6.5495ZM161.926 -0.112599L168.336 9.5663V65H181.283V22.6391L217.485 65H230.432V-0.112599H217.485V45.1394L178.141 -0.112599H161.926ZM310.594 46.8992C305.566 51.4244 298.401 53.9384 291.614 53.9384C279.169 53.9384 266.725 47.1506 266.725 32.4437C266.725 17.7368 278.918 10.8233 291.488 10.8233C297.647 10.8233 304.058 12.5831 308.96 15.977L317.634 5.921C310.469 0.5159 301.041 -2.2495 291.488 -2.2495C272.004 -2.2495 253.024 10.0691 253.024 32.1923C253.024 54.1898 271.627 67.0112 291.362 67.0112C301.293 67.0112 310.971 63.8687 318.136 57.7094L310.594 46.8992ZM396.628 31.9409C396.628 46.0193 384.184 53.8127 371.865 53.8127C359.421 53.8127 346.851 47.1506 346.851 32.4437C346.851 17.7368 359.17 11.0747 371.74 11.0747C384.058 11.0747 396.628 17.3597 396.628 31.9409ZM410.204 31.8152C410.204 9.1892 391.349 -2.2495 371.74 -2.2495C352.256 -2.2495 333.275 10.0691 333.275 32.1923C333.275 54.1898 351.879 67.0112 371.614 67.0112C391.349 67.0112 410.204 53.9384 410.204 31.8152ZM460.785 67.0112C478.886 67.0112 492.085 58.5893 492.085 39.4829V-0.112599H479.137V39.4829C479.137 50.5445 471.721 53.9384 460.66 53.9384C449.598 53.9384 442.182 50.5445 442.182 39.4829V-0.112599H429.235V39.4829C429.235 58.5893 442.433 67.0112 460.534 67.0112H460.785ZM581.102 -0.112599H566.395L543.895 51.8015L521.897 -0.112599H507.316L535.598 65H552.316L581.102 -0.112599ZM612.777 41.6198C618.434 38.603 621.199 37.8488 633.141 37.8488H642.694V24.9017H633.141C625.599 24.9017 618.434 25.4045 612.777 28.6727V12.8345H651.241V-0.112599H599.956V65H653.63V51.9272H612.777V41.6198ZM724.408 38.4773C733.835 35.5862 739.366 29.4269 739.366 19.4966C739.366 8.1836 730.818 -0.112599 718.877 -0.112599H676.893V65H690.092V42.1226C695.371 39.3572 698.136 38.3516 708.318 38.3516H709.198L719.254 54.6926C725.288 64.4972 731.447 65 738.235 65H743.891V51.0473H739.366C736.098 51.0473 731.573 50.5445 728.43 45.2651L724.408 38.4773ZM708.318 25.4045C701.53 25.4045 695.12 26.4101 690.092 29.1755V12.8345H716.614C721.139 12.8345 726.167 13.3373 726.167 19.1195C726.167 23.2676 722.774 25.4045 718.877 25.4045H708.318ZM859.52 27.9185H834.506L840.037 40.1114H846.699V50.5445C842.425 52.8071 837.649 53.9384 832.998 53.9384C820.553 53.9384 808.109 47.1506 808.109 32.4437C808.109 17.7368 820.302 10.8233 832.872 10.8233C839.031 10.8233 845.442 12.5831 850.344 15.977L859.018 5.921C851.853 0.5159 842.425 -2.2495 832.872 -2.2495C813.388 -2.2495 794.408 10.0691 794.408 32.1923C794.408 54.1898 813.011 67.0112 832.746 67.0112C842.677 67.0112 852.355 63.8687 859.52 57.7094V27.9185ZM896.835 41.6198C902.491 38.603 905.256 37.8488 917.198 37.8488H926.751V24.9017H917.198C909.656 24.9017 902.491 25.4045 896.835 28.6727V12.8345H935.299V-0.112599H884.013V65H937.687V51.9272H896.835V41.6198ZM1042.47 -0.112599H1026.63L998.853 36.7175L971.073 -0.112599H955.235L961.646 10.3205V65H975.85V26.9129L998.853 57.5837L1021.86 26.9129V65H1036.06V10.3205L1042.47 -0.112599ZM1145.95 5.921C1136.39 -0.6154 1127.47 -2.2495 1118.04 -2.2495C1103.59 -2.2495 1091.14 5.5439 1091.14 17.3597C1091.14 31.5638 1102.45 36.7175 1118.04 36.7175C1131.62 36.7175 1138.15 37.9745 1138.15 43.8824C1138.15 50.6702 1129.86 54.4412 1118.04 54.4412C1106.48 54.4412 1101.7 47.9048 1097.8 43.7567L1088.5 53.1842C1095.67 61.6061 1106.73 67.0112 1118.04 67.0112C1136.64 67.0112 1150.97 59.4692 1150.97 43.8824C1150.97 33.3236 1146.7 23.8961 1118.92 23.8961C1106.23 23.8961 1104.72 21.2564 1104.72 17.3597C1104.72 13.5887 1111.63 10.3205 1117.92 10.3205C1125.46 10.3205 1132.25 11.8289 1137.27 15.977L1145.95 5.921ZM1185.19 39.1058C1187.83 37.9745 1190.47 37.5974 1193.36 37.5974C1199.77 37.5974 1206.18 39.3572 1212.97 39.3572C1215.61 39.3572 1218.12 38.9801 1220.64 37.7231V65H1233.46V-0.112599H1220.64V24.5246C1218 25.7816 1215.23 26.1587 1212.47 26.1587C1205.93 26.1587 1198.26 24.2732 1192.86 24.2732C1190.22 24.2732 1187.58 24.776 1185.19 25.9073V-0.112599H1172.37V65H1185.19V39.1058ZM1318.28 31.9409C1318.28 46.0193 1305.83 53.8127 1293.52 53.8127C1281.07 53.8127 1268.5 47.1506 1268.5 32.4437C1268.5 17.7368 1280.82 11.0747 1293.39 11.0747C1305.71 11.0747 1318.28 17.3597 1318.28 31.9409ZM1331.85 31.8152C1331.85 9.1892 1313 -2.2495 1293.39 -2.2495C1273.91 -2.2495 1254.93 10.0691 1254.93 32.1923C1254.93 54.1898 1273.53 67.0112 1293.26 67.0112C1313 67.0112 1331.85 53.9384 1331.85 31.8152ZM1384.39 16.8569L1375.84 47.6534L1359 -0.112599H1345.05L1367.55 65H1384.77L1391.43 39.2315L1399.6 65H1417.07L1439.95 -0.112599H1426.12L1408.65 47.6534L1393.82 -0.112599H1379.11L1384.39 16.8569Z" fill="white"/>
</svg>
