<svg width="375" height="616" viewBox="0 0 375 616" fill="none" xmlns="http://www.w3.org/2000/svg">
<path d="M375.326 78.2439L384.7 101.355L383.495 117.635L383.435 117.77L383.492 117.908L389.989 136.361L389.824 148.564L390.567 167.489L390.531 167.57L395.018 183.479L391.037 205.419L390.941 205.635L391.058 205.864L398.977 220.977L388.072 245.63L387.946 245.913L388.068 246.21L392.445 255.996L397.791 269.978L393.516 290.946L393.462 291.068L393.498 291.213L397.171 310.62L393.121 348.07L393.079 348.164L393.037 348.259L396.402 364.298L386.923 395.612L386.893 395.679L386.851 395.774L387.181 414.223L384.847 447.56L384.137 465.497L377.985 482.9L377.871 483.156L377.977 483.413L383.227 495.866L375.325 514.96L375.199 515.243L375.34 515.532L378.358 522.224L372.926 544.535L372.866 544.67L372.415 560.623L369.697 566.342L369.601 566.558L369.644 566.803L371.741 576.962L368.406 584.861L368.352 584.982L368.298 585.104L367.989 601.46L363.166 611.635L348.286 608.234L344.415 601.484L344.346 601.373L344.233 601.322L337.99 595.761L334.49 589.355L334.405 589.204L334.236 589.128L318.321 577.77L307.578 564.823L307.479 564.779L307.38 564.735L295.166 556.415L289.422 553.031L280.059 545.142L279.96 545.098L264.984 538.422L247.159 530.477L238.942 523.05L238.843 523.006L238.73 522.956L185.235 497.69L185.122 497.639L184.995 497.583L176.804 496.694L148.418 483.282L135.109 478.48L134.953 478.411L134.797 478.422L126.208 478.729L114.764 473.192L114.44 473.047L114.126 473.182L109.19 475.231L92.7124 467.45L92.4727 467.343L92.2293 467.396L83.6756 468.914L73.7088 469.431L63.1607 464.729L62.9696 464.741L53.4596 465.219L38.1565 461.629L38.0578 461.585L23.7596 461.883L4.78073 454.328L10.5248 432.188L23.61 420.542L23.6761 420.394L23.7421 420.246L34.9399 391.749L51.2428 382.668L51.4016 382.577L51.4797 382.402L61.8165 365.734L69.8571 358.882L78.6826 353.834L78.8414 353.743L78.9075 353.595L93.258 331.867L108.126 321.226L108.263 321.109L108.329 320.961L123.051 291.725L136.497 282L136.533 281.919L136.569 281.838L156.46 257.426L167.33 256.133L167.725 256.083L167.875 255.746L181.25 230.821L193.448 225.45L193.681 225.344L193.783 225.115L204.239 204.769L212.629 200.432L225.627 191.864L225.663 191.783L225.705 191.689L240.822 173.436L267.576 158.238L267.618 158.144L267.666 158.036L280.382 143.35L293.971 138.309L294.192 138.23L294.288 138.014L304.962 122.337L319.733 113.203L319.769 113.122L319.811 113.027L331.979 99.6474L345.908 95.5498L346.089 95.4851L346.161 95.3233L357.262 83.7295L375.326 78.2439ZM375.74 77.314L356.796 83.0692L345.552 94.7934L331.428 98.9494L319.345 112.594L304.427 121.791L293.656 137.652L279.862 142.811L267.172 157.59L240.462 172.84L225.261 191.168L212.277 199.742L203.694 204.171L193.134 224.713L180.754 230.341L167.254 255.469L156.092 256.81L136.012 281.38L122.43 291.222L107.642 320.606L92.79 331.4L78.3633 353.223L69.4714 358.306L61.2943 365.275L50.8952 382.044L34.3108 391.226L23.0815 419.983L9.82755 431.781L3.74158 454.915L23.5282 462.781L37.9773 462.486L53.3104 466.009L62.9672 465.467L73.5012 470.162L83.7275 469.632L92.269 468.027L109.023 475.948L114.287 473.771L126.074 479.332L134.812 478.994L148.135 483.802L176.578 497.239L184.9 498.138L238.395 523.404L246.693 530.916L264.645 538.917L279.508 545.542L288.878 553.418L294.672 556.841L307.007 565.231L317.811 578.269L334.004 589.687L337.566 596.218L343.918 601.877L347.959 608.928L363.651 612.595L368.809 601.744L369.088 585.229L372.537 577.074L370.404 566.69L373.182 560.836L373.575 544.824L379.276 522.326L376.231 515.315L384.24 495.946L378.882 483.203L385.004 465.674L385.729 447.629L388.05 414.32L387.737 395.797L397.247 364.335L393.826 348.158L397.883 310.614L394.188 291.069L398.554 269.898L393.05 255.7L388.777 245.945L399.826 220.968L391.86 205.657L395.874 183.57L391.327 167.489L390.619 148.563L390.778 136.26L384.288 117.714L385.511 101.28L375.74 77.314Z" fill="black"/>
</svg>
