<svg width="1711" height="900" viewBox="0 0 1711 900" fill="none" xmlns="http://www.w3.org/2000/svg">
<rect width="303" height="900" fill="white"/>
<circle cx="738.233" cy="475.233" r="44.7325" stroke="white"/>
<path d="M752.903 475.233L730.898 487.458L730.898 463.007L752.903 475.233Z" fill="white"/>
<path d="M272 0V900H1711V0H272ZM1021.3 193.8C1021.3 195.3 1021.1 196.9 1020.6 198.3L1014.4 219.7C1014.2 220.3 1014.1 221 1014 221.6L1010.7 241.6C1010.6 242 1010.6 242.4 1010.5 242.8L1005 265.5C1004.8 266.3 1004.5 267.2 1004.2 268L995.8 288.4C995.4 289.4 995.1 290.4 994.9 291.4L991.5 307.5C991.3 308.6 990.9 309.6 990.5 310.6L979.1 337.7C978.9 338.1 978.8 338.5 978.6 338.9L969.8 365.4C969.6 365.9 969.4 366.4 969.2 366.9L958.7 390.6C958.3 391.5 958 392.4 957.8 393.3L952.2 415.4C952 416.4 951.6 417.3 951.2 418.2L934.3 455.4C934 456 933.8 456.6 933.6 457.2L925.3 483C925 483.9 924.6 484.8 924.1 485.7L900.5 530.3C900.2 530.8 900 531.3 899.8 531.8L888.2 560.2C887.9 561 887.4 561.8 887 562.6L872.1 587C871.5 587.9 871.1 588.9 870.7 589.9L858.8 622.2C858.4 623.3 857.9 624.3 857.3 625.3L839.6 653.7C839 654.7 838.4 655.8 838 656.9L833.2 670.2C832.7 671.6 832.1 672.9 831.2 674.1L817 694.6C816.1 695.9 815.3 697.4 814.8 699L811.1 710.6C810.7 711.9 810.1 713.1 809.5 714.2L797.7 734C797.2 734.8 796.8 735.6 796.5 736.5L790.1 752.6C789.6 753.7 789.1 754.8 788.4 755.8L776.9 772.9C776.3 773.7 775.8 774.6 775.4 775.6L770 787.9C769.5 789.1 768.8 790.3 767.9 791.4L762.1 798.9C761 800.3 760.2 801.8 759.6 803.5L756.5 812C756.1 813.2 755.5 814.4 754.7 815.5L748.3 825.3C747.6 826.4 747.1 827.5 746.6 828.7L740.3 845.5L724.1 858L706.7 838.4L697.8 808.6C697.4 807.2 696.8 805.8 696 804.5L686.4 789C685.8 788.1 685.4 787.1 685 786.1L678.4 768.6C677.9 767.2 677.2 765.9 676.4 764.8L661.3 743.7C661.1 743.4 660.8 743 660.6 742.6L650.7 726.2C650.2 725.3 649.5 724.4 648.8 723.6L638.7 712.3L628.3 701.4L627.6 700.7L626.9 700L621.2 694.1C620.7 693.6 620.3 693.2 619.9 692.6L602.8 670C602.3 669.4 601.8 668.8 601.3 668.2L537 603.8C536.5 603.3 536 602.9 535.5 602.5L531 599L530.2 598.4L529.4 597.8L522.8 592.6C522.5 592.4 522.1 592.1 521.8 591.8L515.4 585.9C514.3 584.9 513 584 511.7 583.3L501.5 578.1C500.2 577.4 498.9 576.5 497.8 575.5L486.1 564.8C484.8 563.6 483.4 562.7 481.8 562L471.4 557.2C470.2 556.7 469.1 556 468.1 555.2L455.3 545.2C453.8 544 452.1 543.1 450.4 542.5L439.7 538.9C438.4 538.4 437.1 537.8 435.9 537L424.9 529.8C423.9 529.1 422.7 528.5 421.5 528.1L412.4 524.7L411.4 524.3L410.4 523.9L409.8 523.7C408.6 523.2 407.5 522.7 406.4 522L394.4 514.1C393.6 513.6 392.8 513.1 391.9 512.7L374.9 505.3C373.3 504.6 371.8 503.6 370.4 502.4L353 486.5L368.4 467L394.6 451.4C395.4 450.9 396.1 450.4 396.8 449.8L422.8 428C424.1 426.9 425.5 426.1 427 425.4L449.7 415.8C450.7 415.4 451.6 414.9 452.5 414.2L475.3 398.8C476.8 397.8 478.4 397.1 480 396.6L498.2 391.4C500 390.9 501.6 390.1 503.1 389L525.4 373.5C526.6 372.7 527.8 372.1 529.1 371.6L552.3 362.9C553.9 362.3 555.5 361.4 556.8 360.3L579.5 342.4C581 341.2 582.6 340.3 584.4 339.7L611.6 330.3C613 329.8 614.3 329.1 615.6 328.3L616.3 327.8L621.2 324.5L626.1 321.2L635.1 315.1C636.5 314.2 637.9 313.5 639.5 313L661.5 306.1C663.2 305.5 664.9 304.7 666.3 303.7L686.9 288.9C688 288.1 689.1 287.5 690.3 287L711.6 278.2C712.5 277.9 713.3 277.4 714.1 277L739.9 261C741.1 260.2 742.5 259.6 743.9 259.2L769.4 251.4C770.4 251.1 771.4 250.7 772.3 250.2L806 232.5C807.5 231.7 809.1 231.2 810.8 230.8L811.2 230.7L812.5 230.5L813.8 230.3L838.8 225.7C840.6 225.4 842.4 224.7 844 223.8L863.4 212.9C864.7 212.2 866.2 211.6 867.7 211.2L885.4 206.9C886.7 206.6 888 206.1 889.2 205.5L905.2 197.2C905.7 196.9 906.2 196.7 906.7 196.5C907.2 196.3 907.7 196.1 908.3 195.9C908.7 195.8 909.1 195.7 909.5 195.6L929.1 191.5C930.3 191.3 931.5 190.9 932.6 190.4L953.5 181C955 180.3 956.7 179.8 958.4 179.6L974.8 177.6C975.7 177.5 976.7 177.3 977.6 177L996.9 171.3C998.8 170.7 1000.7 170.5 1002.7 170.6L1021 171.8L1021.3 193.8Z" fill="white"/>
<mask id="mask0" mask-type="alpha" maskUnits="userSpaceOnUse" x="52" y="52" width="515" height="384">
<path d="M81.7998 430.2L90.1998 429C91.0998 428.9 92.0998 428.6 92.9998 428.3L99.0998 425.9C100.3 425.4 101.5 425.1 102.8 425.1L109.6 424.6C110.6 424.5 111.6 424.3 112.5 424L121.8 421C122.5 420.8 123.2 420.6 123.9 420.5L138.7 418.5C139.6 418.4 140.4 418.2 141.2 417.9L153 413.7C153.6 413.5 154.3 413.3 154.9 413.2L171.2 410.2C172.1 410 173.1 409.7 173.9 409.4L182 405.8C183.1 405.3 184.2 405 185.4 404.8L203.3 402.6C204.4 402.5 205.4 402.2 206.4 401.8L215.9 397.9C216.7 397.6 217.6 397.3 218.4 397.2L242.3 393.1C243.1 393 243.9 392.7 244.7 392.4L267.9 383.3C268.6 383 269.4 382.8 270.2 382.7L290.6 379C291.2 378.9 291.9 378.7 292.5 378.5L313.5 371.1C313.9 371 314.3 370.8 314.7 370.8L350.2 362.1C350.9 361.9 351.6 361.7 352.2 361.4L370.2 353.5C370.6 353.3 371.1 353.1 371.5 353L399.8 344.3C400.5 344.1 401.2 343.8 401.8 343.5L416.5 335.9C417.1 335.6 417.7 335.3 418.4 335.1L436.3 329.4C436.7 329.3 437 329.1 437.4 329L456 321C456.3 320.9 456.6 320.8 456.9 320.7L477 313.8C477.7 313.5 478.5 313.2 479.1 312.8L489.4 306.9C490.1 306.5 490.7 306.2 491.5 306L506.6 300.7C507.2 300.5 507.8 300.2 508.3 299.9L523.2 292C523.5 291.9 523.7 291.7 524 291.6L536.4 283.8C536.8 283.5 537.2 283.3 537.7 283.1L552.3 276.2C553.3 275.7 554.2 275.1 555.1 274.4L567 264L558.8 253.5C557.9 252.4 556.8 251.4 555.6 250.7L543.2 243C542.6 242.6 542.1 242.2 541.6 241.8L532.6 233.9C531.7 233.1 530.6 232.4 529.5 231.9L514.4 225.2C513.6 224.8 512.8 224.4 512.1 223.9L500.4 215.3C499.5 214.6 498.5 214.1 497.5 213.7L485.3 209C484.4 208.6 483.5 208.2 482.7 207.6L471.9 200C471 199.4 470 198.9 469 198.5L453.8 193.2C452.5 192.8 451.4 192.1 450.3 191.3L434 178.6C433 177.8 431.9 177.2 430.8 176.8L405 167.1C404.3 166.8 403.6 166.5 402.9 166.1L386.4 156C385.5 155.5 384.5 155 383.5 154.7L362.4 148.4C361.8 148.2 361.1 148 360.5 147.7L345.5 140.4C344.6 140 343.7 139.7 342.8 139.5L324.9 135.5C323.6 135.2 322.4 134.7 321.3 134.1L307 125.5C306 124.9 304.9 124.4 303.7 124.1L287.1 119.9C286.1 119.6 285.1 119.2 284.1 118.7L265.9 108.5C264.7 107.8 263.4 107.4 262.1 107.1L241.5 103.4C240.3 103.2 239.1 102.8 237.9 102.2L222 93.8C221.1 93.3 220.2 93 219.2 92.7L200.1 88.1C198.8 87.8 197.6 87.3 196.5 86.6L184.9 79.2C183.8 78.5 182.7 78 181.4 77.7L162.1 72.7C161.3 72.5 160.6 72.3 159.9 71.9L143.8 64.3C142.7 63.8 141.6 63.4 140.4 63.2L116.1 59.6C115.4 59.5 114.8 59.4 114.2 59.2L93.0998 52.5L75.0998 53.5L74.9998 70.4C74.9998 71.7 75.1998 73 75.5998 74.2L79.7998 87C79.9998 87.7 80.1998 88.3 80.2998 89L81.7998 99.3C81.8998 100.2 82.1998 101.1 82.4998 101.9L85.7998 110.4C86.0998 111.3 86.3998 112.1 86.4998 113L87.8998 122.4C87.9998 123.4 88.2998 124.4 88.6998 125.3L91.8998 132.8C92.3998 134.1 92.6998 135.4 92.7998 136.8L93.4998 148.6C93.5998 149.5 93.6998 150.5 93.9998 151.3L96.3998 159.2C96.7998 160.4 96.8998 161.6 96.8998 162.9L96.6998 174.4C96.6998 175.5 96.7998 176.6 97.0998 177.6L99.1998 185.6C99.4998 186.7 99.5998 187.8 99.5998 188.9L99.4998 195.2C99.4998 195.5 99.4998 195.9 99.4998 196.1L100.2 207.8C100.2 208.3 100.2 208.8 100.2 209.2L96.2998 274.9C96.2998 275.5 96.1998 276 96.0998 276.6L92.0998 296.8C91.9998 297.3 91.8998 297.7 91.8998 298.2L90.3998 316.5L89.1998 327.4C89.0998 328.2 88.9998 328.9 88.6998 329.7L84.5998 343C84.4998 343.3 84.3998 343.6 84.3998 343.9L80.1998 362.2C79.9998 363.2 79.5998 364.2 79.0998 365.1L72.7998 377.1C72.3998 377.8 72.0998 378.5 71.8998 379.3L68.0998 392C67.7998 393 67.2998 394 66.7998 394.9L54.9998 414L52.7998 432.8L67.3998 435.6L79.4998 430.9C79.9998 430.6 80.8998 430.3 81.7998 430.2Z" fill="white"/>
</mask>
<g mask="url(#mask0)">
<path d="M81.7998 430.2L90.1998 429C91.0998 428.9 92.0998 428.6 92.9998 428.3L99.0998 425.9C100.3 425.4 101.5 425.1 102.8 425.1L109.6 424.6C110.6 424.5 111.6 424.3 112.5 424L121.8 421C122.5 420.8 123.2 420.6 123.9 420.5L138.7 418.5C139.6 418.4 140.4 418.2 141.2 417.9L153 413.7C153.6 413.5 154.3 413.3 154.9 413.2L171.2 410.2C172.1 410 173.1 409.7 173.9 409.4L182 405.8C183.1 405.3 184.2 405 185.4 404.8L203.3 402.6C204.4 402.5 205.4 402.2 206.4 401.8L215.9 397.9C216.7 397.6 217.6 397.3 218.4 397.2L242.3 393.1C243.1 393 243.9 392.7 244.7 392.4L267.9 383.3C268.6 383 269.4 382.8 270.2 382.7L290.6 379C291.2 378.9 291.9 378.7 292.5 378.5L313.5 371.1C313.9 371 314.3 370.8 314.7 370.8L350.2 362.1C350.9 361.9 351.6 361.7 352.2 361.4L370.2 353.5C370.6 353.3 371.1 353.1 371.5 353L399.8 344.3C400.5 344.1 401.2 343.8 401.8 343.5L416.5 335.9C417.1 335.6 417.7 335.3 418.4 335.1L436.3 329.4C436.7 329.3 437 329.1 437.4 329L456 321C456.3 320.9 456.6 320.8 456.9 320.7L477 313.8C477.7 313.5 478.5 313.2 479.1 312.8L489.4 306.9C490.1 306.5 490.7 306.2 491.5 306L506.6 300.7C507.2 300.5 507.8 300.2 508.3 299.9L523.2 292C523.5 291.9 523.7 291.7 524 291.6L536.4 283.8C536.8 283.5 537.2 283.3 537.7 283.1L552.3 276.2C553.3 275.7 554.2 275.1 555.1 274.4L567 264L558.8 253.5C557.9 252.4 556.8 251.4 555.6 250.7L543.2 243C542.6 242.6 542.1 242.2 541.6 241.8L532.6 233.9C531.7 233.1 530.6 232.4 529.5 231.9L514.4 225.2C513.6 224.8 512.8 224.4 512.1 223.9L500.4 215.3C499.5 214.6 498.5 214.1 497.5 213.7L485.3 209C484.4 208.6 483.5 208.2 482.7 207.6L471.9 200C471 199.4 470 198.9 469 198.5L453.8 193.2C452.5 192.8 451.4 192.1 450.3 191.3L434 178.6C433 177.8 431.9 177.2 430.8 176.8L405 167.1C404.3 166.8 403.6 166.5 402.9 166.1L386.4 156C385.5 155.5 384.5 155 383.5 154.7L362.4 148.4C361.8 148.2 361.1 148 360.5 147.7L345.5 140.4C344.6 140 343.7 139.7 342.8 139.5L324.9 135.5C323.6 135.2 322.4 134.7 321.3 134.1L307 125.5C306 124.9 304.9 124.4 303.7 124.1L287.1 119.9C286.1 119.6 285.1 119.2 284.1 118.7L265.9 108.5C264.7 107.8 263.4 107.4 262.1 107.1L241.5 103.4C240.3 103.2 239.1 102.8 237.9 102.2L222 93.8C221.1 93.3 220.2 93 219.2 92.7L200.1 88.1C198.8 87.8 197.6 87.3 196.5 86.6L184.9 79.2C183.8 78.5 182.7 78 181.4 77.7L162.1 72.7C161.3 72.5 160.6 72.3 159.9 71.9L143.8 64.3C142.7 63.8 141.6 63.4 140.4 63.2L116.1 59.6C115.4 59.5 114.8 59.4 114.2 59.2L93.0998 52.5L75.0998 53.5L74.9998 70.4C74.9998 71.7 75.1998 73 75.5998 74.2L79.7998 87C79.9998 87.7 80.1998 88.3 80.2998 89L81.7998 99.3C81.8998 100.2 82.1998 101.1 82.4998 101.9L85.7998 110.4C86.0998 111.3 86.3998 112.1 86.4998 113L87.8998 122.4C87.9998 123.4 88.2998 124.4 88.6998 125.3L91.8998 132.8C92.3998 134.1 92.6998 135.4 92.7998 136.8L93.4998 148.6C93.5998 149.5 93.6998 150.5 93.9998 151.3L96.3998 159.2C96.7998 160.4 96.8998 161.6 96.8998 162.9L96.6998 174.4C96.6998 175.5 96.7998 176.6 97.0998 177.6L99.1998 185.6C99.4998 186.7 99.5998 187.8 99.5998 188.9L99.4998 195.2C99.4998 195.5 99.4998 195.9 99.4998 196.1L100.2 207.8C100.2 208.3 100.2 208.8 100.2 209.2L96.2998 274.9C96.2998 275.5 96.1998 276 96.0998 276.6L92.0998 296.8C91.9998 297.3 91.8998 297.7 91.8998 298.2L90.3998 316.5L89.1998 327.4C89.0998 328.2 88.9998 328.9 88.6998 329.7L84.5998 343C84.4998 343.3 84.3998 343.6 84.3998 343.9L80.1998 362.2C79.9998 363.2 79.5998 364.2 79.0998 365.1L72.7998 377.1C72.3998 377.8 72.0998 378.5 71.8998 379.3L68.0998 392C67.7998 393 67.2998 394 66.7998 394.9L54.9998 414L52.7998 432.8L67.3998 435.6L79.4998 430.9C79.9998 430.6 80.8998 430.3 81.7998 430.2Z" fill="white"/>
<path d="M559.5 252.7C558.5 251.5 557.4 250.5 556.1 249.7L543.7 242C543.2 241.7 542.7 241.3 542.2 240.9L533.2 233C532.2 232.1 531.1 231.4 529.9 230.9L514.8 224.1C514.1 223.8 513.3 223.4 512.7 222.9L501.2 214.4L501 214.2C500.7 214 500.3 213.7 499.9 213.5C499.4 213.2 498.8 212.9 498.3 212.7C498.2 212.6 498 212.6 497.8 212.5L485.6 207.8C484.7 207.5 483.9 207 483.2 206.5L472.4 198.9C471.4 198.2 470.3 197.7 469.2 197.3L454 192C452.8 191.6 451.8 191 450.8 190.2L434.5 177.5C433.5 176.7 432.4 176.1 431.2 175.6C431.1 175.6 431.1 175.5 431 175.5L429.3 174.8L427.4 174.1L405.3 165.8C404.7 165.6 404 165.2 403.4 164.9L386.9 154.8C385.9 154.2 384.9 153.7 383.8 153.4L371.1 149.6L362.7 147.1C362.1 146.9 361.5 146.7 361 146.4L359.8 145.8L355 143.4L346.1 139.1C345.2 138.7 344.2 138.3 343.2 138.1L325.2 134.1C324 133.8 322.9 133.4 321.9 132.8L307.6 124.2C306.5 123.5 305.3 123.1 304.1 122.7L287.5 118.5C286.5 118.3 285.6 117.9 284.8 117.4L270.5 109.3L266.6 107.1C265.3 106.4 263.9 105.9 262.5 105.6L241.9 101.9C240.8 101.7 239.7 101.3 238.6 100.8L222.7 92.4003C221.7 91.9003 220.7 91.5002 219.6 91.2002L200.5 86.5002C199.3 86.2002 198.2 85.7002 197.2 85.1002L185.6 77.7002C184.4 77.0002 183.2 76.4002 181.8 76.1002L162.5 71.1002C161.8 70.9002 161.1 70.7003 160.5 70.4003L144.2 63.0002C143 62.4002 141.8 62.1003 140.5 61.9003L116.2 58.3003C115.6 58.2003 115 58.1003 114.4 57.9003L93.2002 51.2002L74.1002 52.3003L74.0002 70.2002C74.0002 71.6002 74.2002 73.0003 74.7002 74.3003L78.9002 87.1002C79.1002 87.7002 79.2002 88.3002 79.3002 89.0002L80.8002 99.3003C80.9002 99.7003 80.9002 100.1 81.0002 100.6C81.1002 100.9 81.2002 101.3 81.3002 101.6C81.4002 101.8 81.4002 102 81.5002 102.2L81.6002 102.6L84.7002 110.7C85.0002 111.5 85.2002 112.3 85.3002 113.1L86.7002 122.5C86.9002 123.6 87.2002 124.7 87.6002 125.7L90.8002 133.2C91.3002 134.3 91.6002 135.6 91.6002 136.8L92.3002 148.6C92.4002 149.6 92.5002 150.6 92.8002 151.6L95.2002 159.5C95.5002 160.6 95.7002 161.7 95.7002 162.9L95.5002 174.4C95.5002 175.6 95.6002 176.8 95.9002 177.9L98.0002 185.9C98.2002 186.9 98.4002 187.9 98.4002 188.9L98.3002 195.2C98.3002 195.6 98.3002 196 98.3002 196.3L98.4002 197.7L98.5002 199.7L99.0002 208C99.0002 208.4 99.0002 208.9 99.0002 209.3L95.1002 275C95.1002 275.5 95.0002 276 94.9002 276.5L94.2002 280L93.6002 283.1L93.0002 286.2L90.9002 296.6C90.8002 297.1 90.7002 297.6 90.7002 298.1L89.2002 316.4L88.2002 325.7L88.0002 327.3C87.9002 327.8 87.9002 328.2 87.7002 328.7C87.6002 328.9 87.6002 329.1 87.5002 329.3L83.4002 342.6C83.3002 342.9 83.2002 343.3 83.1002 343.6L78.9002 361.9C78.7002 362.8 78.4002 363.7 77.9002 364.6L71.6002 376.6C71.2002 377.4 70.9002 378.1 70.6002 378.9L66.8002 391.6C66.5002 392.5 66.1002 393.4 65.6002 394.3L53.6002 413.6L51.2002 433.6L67.0002 436.6L79.4002 431.8C80.2002 431.5 81.0002 431.2 81.8002 431.1L90.2002 429.9C91.2002 429.8 92.2002 429.5 93.2002 429.1L99.3002 426.7C100 426.4 100.7 426.2 101.4 426.1C101.7 426 102.1 426 102.4 425.9C102.5 425.9 102.6 425.9 102.7 425.9H103.4L109.6 425.5C110.7 425.4 111.7 425.2 112.7 424.9L122 421.9C122.6 421.7 123.3 421.5 124 421.5L137.5 419.7L138.5 419.6H138.8C139 419.6 139.3 419.5 139.5 419.5C140.2 419.4 140.9 419.2 141.5 418.9L153.3 414.7C153.9 414.5 154.5 414.3 155.1 414.2L171.4 411.2C172.4 411 173.4 410.7 174.4 410.3L182.5 406.7C183.5 406.3 184.6 406 185.6 405.8L194.3 404.7L195.4 404.6L196.5 404.5L203.5 403.6C204.6 403.5 205.8 403.2 206.8 402.7L216.3 398.8C217.1 398.5 217.8 398.3 218.6 398.1L235.5 395.2L239.7 394.5L242.4 394C243.3 393.8 244.1 393.6 244.9 393.3C244.9 393.3 244.9 393.3 245 393.3L268.2 384.2C268.8 384 269.4 383.8 270.1 383.7C270.2 383.7 270.3 383.7 270.3 383.7L290.7 380C291.4 379.9 292.1 379.7 292.7 379.5L313.7 372.1C314 372 314.4 371.9 314.8 371.8L350.3 363.1C351.1 362.9 351.8 362.7 352.5 362.4L370.5 354.5C370.9 354.3 371.3 354.2 371.7 354L400 345.3C400.7 345.1 401.5 344.8 402.2 344.4L416.9 336.8C417.4 336.5 418 336.3 418.6 336.1L436.5 330.4C436.9 330.3 437.3 330.1 437.7 330L456.3 322C456.6 321.9 456.8 321.8 457.1 321.7L477.2 314.8C478 314.5 478.8 314.2 479.5 313.8L489.8 307.9C490.4 307.6 491 307.3 491.7 307L506.8 301.8C507.4 301.6 508.1 301.3 508.7 301L523.6 293.1C523.9 292.9 524.2 292.8 524.4 292.6L536.8 284.8C537.2 284.6 537.6 284.4 537.9 284.2L552.5 277.2C553.6 276.7 554.6 276 555.5 275.2L561 270.4L564.3 267.5L566.8 265.3L568.1 264.2L559.5 252.7ZM556.7 271.4L554.4 273.4C553.8 273.9 553.2 274.4 552.5 274.7C552.3 274.8 552 274.9 551.8 275.1L538.6 281.4L537.2 282.1C536.7 282.3 536.3 282.6 535.8 282.9L523.4 290.7C523.2 290.8 522.9 291 522.7 291.1L507.8 299C507.3 299.3 506.8 299.5 506.2 299.7L491.1 304.9C490.3 305.2 489.6 305.5 488.9 305.9L478.6 311.8C478 312.1 477.3 312.4 476.6 312.7L456.5 319.6C456.2 319.7 455.9 319.8 455.6 320L437 328C436.7 328.1 436.3 328.3 436 328.4L418.1 334.1C417.4 334.3 416.7 334.6 416.1 334.9L401.4 342.5C400.8 342.8 400.2 343.1 399.6 343.3L371.3 352C370.8 352.2 370.3 352.3 369.9 352.5L351.9 360.4C351.3 360.7 350.7 360.9 350 361L314.5 369.7C314.1 369.8 313.6 369.9 313.3 370.1L292.3 377.5C291.7 377.7 291.2 377.8 290.6 377.9L270.4 381.6H270.3C269.5 381.8 268.6 382 267.8 382.3L266.6 382.8L261.7 384.7L244.6 391.4H244.5C243.8 391.7 243.1 391.9 242.4 392L218.5 396.1C217.6 396.3 216.7 396.5 215.8 396.9L206.3 400.7C205.4 401.1 204.5 401.3 203.5 401.4L195.4 402.4L194.3 402.5L193.2 402.6L185.6 403.5C184.3 403.7 183.1 404 181.9 404.5L173.8 408.1C173 408.4 172.2 408.7 171.3 408.9L155 411.9C154.3 412 153.6 412.2 152.9 412.5L141.1 416.7C140.4 416.9 139.7 417.1 139 417.2C138.9 417.2 138.9 417.2 138.8 417.2L138 417.3L137 417.4L124 419.1C123.2 419.2 122.4 419.4 121.7 419.6L112.4 422.6C111.5 422.9 110.6 423.1 109.7 423.1L103.8 423.5L102.9 423.6H102.8C102.5 423.6 102.1 423.7 101.8 423.7C100.8 423.8 99.9002 424.1 98.9002 424.5L92.8002 426.9C92.0002 427.2 91.1002 427.5 90.3002 427.6L81.9002 428.8C80.9002 429 80.0002 429.2 79.1002 429.6L67.3002 434.2L53.9002 431.6L56.0002 413.9L67.7002 395C68.3002 394 68.8002 392.9 69.1002 391.8L72.9002 379.1C73.1002 378.4 73.4002 377.8 73.7002 377.1L80.0002 365.1C80.5002 364.1 80.9002 363 81.2002 361.9L85.4002 343.6C85.5002 343.3 85.5002 343 85.6002 342.7L89.5002 330.1L89.7002 329.4C89.7002 329.2 89.8002 329.1 89.8002 328.9C89.9002 328.5 90.0002 328.1 90.1002 327.7C90.1002 327.5 90.2002 327.2 90.2002 326.9L91.4002 316L92.9002 297.7C92.9002 297.3 93.0002 296.9 93.1002 296.4L94.0002 291.9L94.6002 288.8L95.2002 285.7L97.1002 276.2C97.2002 275.6 97.3002 275 97.3002 274.4L101.2 208.7C101.2 208.2 101.2 207.7 101.2 207.1L100.7 198.8L100.6 197.8L100.5 196.8L100.2 196C100.2 195.8 100.2 195.5 100.2 195.2L100.3 188.9C100.3 187.7 100.2 186.5 99.9002 185.4L97.8002 177.4C97.6002 176.4 97.4002 175.4 97.4002 174.4L97.6002 162.9C97.6002 161.5 97.4002 160.2 97.0002 158.9L94.6002 150.9C94.4002 150.1 94.2002 149.2 94.1002 148.4L93.4002 136.6C93.3002 135.1 93.0002 133.7 92.4002 132.3L89.2002 124.8C88.8002 123.9 88.6002 123 88.4002 122.1L87.0002 112.7C86.9002 111.7 86.6002 110.8 86.3002 109.8L83.4002 102.3L83.0002 101.3C82.9002 101 82.8002 100.7 82.7002 100.3C82.6002 99.8003 82.5002 99.3003 82.4002 98.8003L80.9002 88.5002C80.8002 87.8002 80.6002 87.0003 80.4002 86.3003L76.2002 73.5002C75.8002 72.4002 75.7002 71.2002 75.7002 70.0002L75.8002 54.0002L92.6002 53.0002L113.5 59.6002C114.2 59.8002 114.9 60.0002 115.6 60.1002L139.9 63.7002C141 63.9002 142.1 64.2002 143.1 64.7002L159.2 72.3003C160 72.7003 160.8 72.9002 161.6 73.1002L180.9 78.1002C182 78.4002 183.1 78.9002 184.1 79.5002L195.7 86.9003C196.9 87.7003 198.2 88.2002 199.6 88.5002L218.7 93.2002C219.6 93.4002 220.5 93.8002 221.3 94.2002L237.2 102.6C238.4 103.2 239.7 103.7 241 103.9L261.6 107.6C262.8 107.8 264 108.2 265.1 108.8L269.9 111.5L283.2 119C284.2 119.6 285.3 120 286.4 120.3L303 124.5C304.1 124.8 305.1 125.2 306 125.8L320.3 134.4C321.5 135.1 322.8 135.6 324.2 136L342.2 140C343 140.2 343.9 140.5 344.7 140.9L346.1 141.6L348.9 143L353.7 145.3L359.7 148.2C360.4 148.5 361 148.8 361.7 149L382.8 155.3C383.7 155.6 384.6 156 385.4 156.5L401.9 166.6C402.6 167 403.4 167.4 404.1 167.7L422.9 174.8L424.8 175.5L426.7 176.2L429.9 177.4C431 177.8 432 178.4 432.9 179.1L449.2 191.8C450.3 192.7 451.6 193.4 453 193.9L468.2 199.2C469.2 199.5 470.1 200 470.9 200.6L481.7 208.2C482.6 208.8 483.5 209.3 484.5 209.7L493.6 213.2L495.6 214L496.7 214.4C497 214.5 497.3 214.6 497.6 214.8C498.2 215.1 498.8 215.5 499.4 215.9L511.1 224.5C511.9 225.1 512.7 225.6 513.6 226L528.7 232.8C529.7 233.3 530.7 233.9 531.5 234.6L540.5 242.5C541 243 541.7 243.4 542.3 243.8L554.7 251.5C555.8 252.2 556.8 253 557.6 254L565.2 263.7L559.7 268.5L556.7 271.4Z" fill="#DCDCDC"/>
</g>
<mask id="mask1" mask-type="alpha" maskUnits="userSpaceOnUse" x="31" y="98" width="590" height="432">
<path d="M118 519.9L127 516.8C128 516.5 129 516 129.9 515.4L136.2 511.4C137.4 510.6 138.7 510.1 140.1 509.7L147.6 507.8C148.7 507.5 149.7 507.1 150.7 506.6L160.4 501.3C161.1 500.9 161.9 500.6 162.7 500.3L178.7 495C179.6 494.7 180.5 494.3 181.4 493.8L193.6 486.6C194.2 486.2 194.9 485.9 195.6 485.6L213.1 478.8C214.1 478.4 215.1 477.9 215.9 477.3L224.1 471.7C225.2 470.9 226.4 470.3 227.7 469.9L247.1 463.7C248.2 463.3 249.3 462.8 250.3 462.2L260 455.9C260.8 455.4 261.7 454.9 262.6 454.6L288.2 445.1C289.1 444.8 289.9 444.4 290.7 443.9L314.5 429C315.3 428.5 316.1 428.1 316.9 427.8L338.7 419.4C339.4 419.1 340 418.8 340.7 418.5L362.4 405.9C362.8 405.7 363.2 405.5 363.6 405.3L401.1 388.3C401.8 388 402.5 387.6 403.2 387.1L421.5 374.6C421.9 374.3 422.4 374 422.9 373.8L452.5 358.2C453.2 357.8 453.9 357.4 454.5 356.9L469.2 345.4C469.8 344.9 470.4 344.5 471.1 344.1L489.7 334C490.1 333.8 490.5 333.6 490.8 333.3L509.8 320.6C510.1 320.4 510.4 320.2 510.7 320L531.6 308.2C532.4 307.8 533.1 307.3 533.8 306.7L544 298C544.6 297.4 545.3 297 546.1 296.5L561.7 287.5C562.3 287.1 562.9 286.7 563.5 286.3L578.4 274.4C578.7 274.2 578.9 274 579.1 273.8L591.2 262.5C591.6 262.1 592 261.8 592.4 261.5L607.1 250.8C608.1 250.1 609 249.2 609.8 248.2L620.8 234.2L609.5 224.3C608.3 223.3 606.9 222.4 605.4 221.9L590.1 216C589.4 215.7 588.7 215.4 588 215L576.4 208.1C575.2 207.4 573.9 206.9 572.6 206.6L554.4 202.3C553.4 202.1 552.5 201.7 551.6 201.3L536.8 194.2C535.7 193.7 534.5 193.3 533.2 193L518.6 190.4C517.5 190.2 516.4 189.9 515.4 189.4L502.2 183C501.1 182.5 499.9 182.1 498.6 181.9L480.6 179.2C479.1 179 477.7 178.5 476.3 177.8L455.6 167.1C454.4 166.5 453 166 451.7 165.8L421.1 160.4C420.3 160.3 419.4 160 418.6 159.7L398.2 152C397.1 151.6 395.9 151.3 394.8 151.2L370.1 148.6C369.4 148.5 368.6 148.4 367.9 148.2L349.8 143.2C348.8 142.9 347.7 142.8 346.6 142.7L325.9 142C324.4 141.9 323 141.7 321.6 141.2L303.9 134.6C302.6 134.1 301.3 133.9 300 133.8L280.7 132.6C279.5 132.5 278.3 132.3 277.1 131.9L254.8 124.4C253.3 123.9 251.8 123.7 250.3 123.7L226.7 123.9C225.3 123.9 223.9 123.7 222.5 123.3L203.1 117.3C202 117 200.9 116.8 199.7 116.7L177.5 115.5C176 115.4 174.5 115.1 173.1 114.6L158.7 108.8C157.4 108.3 156 108 154.5 107.9L132.1 106.4C131.2 106.4 130.4 106.2 129.5 106L110.1 100.9C108.8 100.6 107.4 100.4 106.1 100.4L78.4002 101.5C77.7002 101.5 76.9002 101.5 76.2002 101.4L51.4002 98.3999L31.7002 103.3L35.1002 122.1C35.4002 123.5 35.9002 124.9 36.6002 126.2L43.9002 139.5C44.3002 140.2 44.6002 140.9 44.8002 141.6L48.6002 152.7C48.9002 153.7 49.4002 154.6 49.9002 155.5L55.3002 164.3C55.8002 165.2 56.3002 166.1 56.6002 167.1L60.1002 177.3C60.5002 178.4 61.0002 179.4 61.6002 180.4L66.7002 188.1C67.5002 189.4 68.2002 190.8 68.6002 192.3L71.9002 205.2C72.2002 206.2 72.5002 207.2 73.0002 208.1L77.3002 216.4C77.9002 217.7 78.4002 219 78.6002 220.4L80.8002 233.2C81.0002 234.4 81.4002 235.6 81.9002 236.7L85.9002 245.2C86.4002 246.3 86.8002 247.5 87.0002 248.7L88.2002 255.7C88.2002 256 88.3002 256.4 88.4002 256.7L91.6002 269.5C91.7002 270 91.8002 270.6 91.9002 271.1L101.3 344.8C101.4 345.4 101.4 346.1 101.4 346.7L101.2 369.9C101.2 370.4 101.2 371 101.3 371.5L103.5 392.1L104.4 404.5C104.5 405.4 104.4 406.2 104.3 407.1L102.5 422.7C102.5 423.1 102.4 423.4 102.4 423.8L101.6 445C101.6 446.2 101.4 447.4 101 448.5L96.6002 463.1C96.3002 463.9 96.2002 464.8 96.1002 465.7L94.5002 480.5C94.4002 481.7 94.1002 482.9 93.7002 484L84.6002 507.7L86.1002 529L102.8 529.1L115.2 521.4C116.1 520.7 117 520.2 118 519.9Z" fill="white"/>
</mask>
<g mask="url(#mask1)">
<path d="M118 519.9L127 516.8C128 516.5 129 516 129.9 515.4L136.2 511.4C137.4 510.6 138.7 510.1 140.1 509.7L147.6 507.8C148.7 507.5 149.7 507.1 150.7 506.6L160.4 501.3C161.1 500.9 161.9 500.6 162.7 500.3L178.7 495C179.6 494.7 180.5 494.3 181.4 493.8L193.6 486.6C194.2 486.2 194.9 485.9 195.6 485.6L213.1 478.8C214.1 478.4 215.1 477.9 215.9 477.3L224.1 471.7C225.2 470.9 226.4 470.3 227.7 469.9L247.1 463.7C248.2 463.3 249.3 462.8 250.3 462.2L260 455.9C260.8 455.4 261.7 454.9 262.6 454.6L288.2 445.1C289.1 444.8 289.9 444.4 290.7 443.9L314.5 429C315.3 428.5 316.1 428.1 316.9 427.8L338.7 419.4C339.4 419.1 340 418.8 340.7 418.5L362.4 405.9C362.8 405.7 363.2 405.5 363.6 405.3L401.1 388.3C401.8 388 402.5 387.6 403.2 387.1L421.5 374.6C421.9 374.3 422.4 374 422.9 373.8L452.5 358.2C453.2 357.8 453.9 357.4 454.5 356.9L469.2 345.4C469.8 344.9 470.4 344.5 471.1 344.1L489.7 334C490.1 333.8 490.5 333.6 490.8 333.3L509.8 320.6C510.1 320.4 510.4 320.2 510.7 320L531.6 308.2C532.4 307.8 533.1 307.3 533.8 306.7L544 298C544.6 297.4 545.3 297 546.1 296.5L561.7 287.5C562.3 287.1 562.9 286.7 563.5 286.3L578.4 274.4C578.7 274.2 578.9 274 579.1 273.8L591.2 262.5C591.6 262.1 592 261.8 592.4 261.5L607.1 250.8C608.1 250.1 609 249.2 609.8 248.2L620.8 234.2L609.5 224.3C608.3 223.3 606.9 222.4 605.4 221.9L590.1 216C589.4 215.7 588.7 215.4 588 215L576.4 208.1C575.2 207.4 573.9 206.9 572.6 206.6L554.4 202.3C553.4 202.1 552.5 201.7 551.6 201.3L536.8 194.2C535.7 193.7 534.5 193.3 533.2 193L518.6 190.4C517.5 190.2 516.4 189.9 515.4 189.4L502.2 183C501.1 182.5 499.9 182.1 498.6 181.9L480.6 179.2C479.1 179 477.7 178.5 476.3 177.8L455.6 167.1C454.4 166.5 453 166 451.7 165.8L421.1 160.4C420.3 160.3 419.4 160 418.6 159.7L398.2 152C397.1 151.6 395.9 151.3 394.8 151.2L370.1 148.6C369.4 148.5 368.6 148.4 367.9 148.2L349.8 143.2C348.8 142.9 347.7 142.8 346.6 142.7L325.9 142C324.4 141.9 323 141.7 321.6 141.2L303.9 134.6C302.6 134.1 301.3 133.9 300 133.8L280.7 132.6C279.5 132.5 278.3 132.3 277.1 131.9L254.8 124.4C253.3 123.9 251.8 123.7 250.3 123.7L226.7 123.9C225.3 123.9 223.9 123.7 222.5 123.3L203.1 117.3C202 117 200.9 116.8 199.7 116.7L177.5 115.5C176 115.4 174.5 115.1 173.1 114.6L158.7 108.8C157.4 108.3 156 108 154.5 107.9L132.1 106.4C131.2 106.4 130.4 106.2 129.5 106L110.1 100.9C108.8 100.6 107.4 100.4 106.1 100.4L78.4002 101.5C77.7002 101.5 76.9002 101.5 76.2002 101.4L51.4002 98.3999L31.7002 103.3L35.1002 122.1C35.4002 123.5 35.9002 124.9 36.6002 126.2L43.9002 139.5C44.3002 140.2 44.6002 140.9 44.8002 141.6L48.6002 152.7C48.9002 153.7 49.4002 154.6 49.9002 155.5L55.3002 164.3C55.8002 165.2 56.3002 166.1 56.6002 167.1L60.1002 177.3C60.5002 178.4 61.0002 179.4 61.6002 180.4L66.7002 188.1C67.5002 189.4 68.2002 190.8 68.6002 192.3L71.9002 205.2C72.2002 206.2 72.5002 207.2 73.0002 208.1L77.3002 216.4C77.9002 217.7 78.4002 219 78.6002 220.4L80.8002 233.2C81.0002 234.4 81.4002 235.6 81.9002 236.7L85.9002 245.2C86.4002 246.3 86.8002 247.5 87.0002 248.7L88.2002 255.7C88.2002 256 88.3002 256.4 88.4002 256.7L91.6002 269.5C91.7002 270 91.8002 270.6 91.9002 271.1L101.3 344.8C101.4 345.4 101.4 346.1 101.4 346.7L101.2 369.9C101.2 370.4 101.2 371 101.3 371.5L103.5 392.1L104.4 404.5C104.5 405.4 104.4 406.2 104.3 407.1L102.5 422.7C102.5 423.1 102.4 423.4 102.4 423.8L101.6 445C101.6 446.2 101.4 447.4 101 448.5L96.6002 463.1C96.3002 463.9 96.2002 464.8 96.1002 465.7L94.5002 480.5C94.4002 481.7 94.1002 482.9 93.7002 484L84.6002 507.7L86.1002 529L102.8 529.1L115.2 521.4C116.1 520.7 117 520.2 118 519.9Z" fill="white"/>
<path d="M610.5 223.3C609.2 222.2 607.7 221.3 606.1 220.7L590.8 214.8C590.1 214.6 589.5 214.2 588.9 213.9L577.2 207C575.9 206.2 574.5 205.7 573.1 205.3L567.8 204L564.2 203.1L560.3 202.2L554.9 200.9C554 200.7 553.1 200.4 552.3 200L537.5 192.9C536.3 192.3 535 191.9 533.7 191.7L519.2 189.1C518.2 188.9 517.2 188.6 516.2 188.2L502.6 182.1C501.4 181.5 500.1 181.2 498.8 181L480.8 178.3C479.6 178.1 478.5 177.8 477.5 177.3C477.3 177.2 477.1 177.1 476.9 177L475.8 176.4L474.1 175.5L456.2 166.2C454.9 165.5 453.4 165 452 164.8L421.4 159.4C420.6 159.3 419.9 159.1 419.1 158.8L398.7 151.1C397.5 150.6 396.3 150.4 395 150.2L370.3 147.6C369.6 147.5 368.9 147.4 368.2 147.2L354.9 143.5L350.1 142.2C350 142.2 349.8 142.1 349.7 142.1C348.7 141.9 347.7 141.7 346.7 141.7H346.6L326 141C324.6 140.9 323.3 140.7 322 140.2L304.3 133.6C302.9 133.1 301.5 132.8 300.1 132.7L280.8 131.5C279.7 131.4 278.6 131.2 277.5 130.9L270.3 128.5L255.2 123.4C253.6 122.9 252 122.6 250.3 122.6L226.7 122.8C225.4 122.8 224.1 122.6 222.8 122.2L203.4 116.2C202.2 115.8 201 115.6 199.8 115.6L177.6 114.4C176.2 114.3 174.8 114.1 173.6 113.6L159.2 107.8C157.8 107.2 156.3 106.9 154.7 106.8L132.3 105.3C131.5 105.3 130.7 105.1 129.9 104.9L110.5 99.7998C109.1 99.3998 107.6 99.2998 106.2 99.2998L83.0998 100.2L82.0998 100.3H81.0998L78.5998 100.4C77.8998 100.4 77.1998 100.4 76.4998 100.3L51.5998 97.2998L30.7998 102.5L34.3998 122.2C34.6998 123.7 35.1998 125.2 35.9998 126.6L43.2998 139.9C43.5998 140.5 43.8998 141.2 44.1998 141.9L47.9998 153C48.3998 154.1 48.7998 155.1 49.3998 156L54.7998 164.8C55.2998 165.6 55.6998 166.5 55.9998 167.4L59.4998 177.6C59.8998 178.8 60.4998 179.9 61.0998 180.9L66.1998 188.6C66.9998 189.8 67.5998 191.1 67.8998 192.5L71.1998 205.4V205.5C71.2998 205.8 71.3998 206.2 71.4998 206.5C71.5998 206.8 71.6998 207.1 71.8998 207.5C72.0998 207.9 72.1998 208.3 72.3998 208.7L76.6998 217C77.2998 218.2 77.6998 219.4 77.8998 220.7L80.0998 233.5C80.2998 234.8 80.6998 236.1 81.2998 237.3L85.2998 245.8C85.7998 246.8 86.0998 247.9 86.2998 249.1L87.4998 256.1C87.5998 256.5 87.6998 257 87.6998 257.2L90.8998 270C90.9998 270.5 91.0998 271 91.1998 271.5L93.0998 286.5L93.4998 289.6L93.8998 292.7L99.9998 340.6L100.4 343.9L100.6 345.1C100.7 345.7 100.7 346.3 100.7 346.8V346.9L100.5 370C100.5 370.6 100.5 371.1 100.6 371.7L102.8 392.3L103.7 404.6C103.8 405.4 103.7 406.2 103.6 407L101.8 422.6C101.8 423 101.7 423.4 101.7 423.8V424.2V425.2V426.2L101 444.9C101 446 100.8 447.1 100.4 448.1L95.9998 462.7C95.6998 463.6 95.4998 464.5 95.3998 465.5L93.8998 480.3C93.7998 481.4 93.4998 482.5 93.0998 483.6L83.8998 507.5L85.3998 530L103.3 530.1L116 522.3C116.8 521.8 117.7 521.4 118.6 521L127.6 517.9C128.7 517.5 129.8 517 130.7 516.4L137 512.4C138.1 511.7 139.3 511.2 140.6 510.8L148.1 508.9C149.3 508.6 150.4 508.1 151.4 507.6L161.1 502.3C161.8 501.9 162.5 501.6 163.2 501.4L165.8 500.5L166.8 500.2L167.8 499.9L179.3 496.1C180.3 495.8 181.3 495.3 182.2 494.8L194.4 487.6C195 487.2 195.6 486.9 196.3 486.7L213.8 479.9C214.9 479.5 215.9 479 216.9 478.3L225.1 472.7C226.1 472 227.3 471.5 228.4 471.1L244.3 466L246.3 465.4L247.8 464.9C249 464.5 250.2 464 251.3 463.3L259.9 457.8L260.8 457.2L261.1 457C261.3 456.9 261.5 456.8 261.7 456.6C262.3 456.3 262.9 456 263.5 455.8L270.6 453.1L289.1 446.3C290 445.9 291 445.5 291.8 445L315.6 430.1C316.3 429.7 317 429.3 317.8 429L339.6 420.6C340.3 420.3 341 420 341.7 419.6L363.4 407C363.8 406.8 364.1 406.6 364.5 406.4L402 389.4C402.8 389.1 403.5 388.6 404.2 388.1L422.4 375.6C422.8 375.3 423.2 375.1 423.7 374.8L453.3 359.2C454.1 358.8 454.8 358.3 455.5 357.8L470.2 346.3C470.8 345.9 471.4 345.5 472 345.1L490.6 335C491 334.8 491.4 334.5 491.8 334.3L510.8 321.6C511.1 321.4 511.4 321.2 511.6 321.1L532.5 309.3C533.3 308.8 534.1 308.3 534.8 307.7L545 299C545.6 298.5 546.2 298 546.9 297.7L562.5 288.7C563.2 288.3 563.8 287.9 564.4 287.4L579.3 275.5C579.6 275.3 579.8 275 580.1 274.8L592.2 263.5C592.6 263.2 593 262.8 593.4 262.5L601.3 256.7L605.1 253.9L608 251.8C608.3 251.6 608.5 251.4 608.8 251.2C609.6 250.5 610.3 249.8 610.9 249L622.5 234.2L610.5 223.3ZM606.8 249.8L600.2 254.6L596.3 257.4L592.5 260.2L592 260.6C591.5 260.9 591.1 261.3 590.7 261.7L578.5 273C578.3 273.2 578 273.4 577.8 273.6L562.9 285.5C562.4 285.9 561.8 286.3 561.3 286.6L545.7 295.6C544.9 296 544.2 296.6 543.5 297.2L533.3 305.9C532.7 306.4 532 306.9 531.3 307.3L510.4 319.1C510.1 319.3 509.8 319.5 509.4 319.7L490.4 332.4C490.1 332.6 489.7 332.8 489.4 333L470.8 343.1C470.1 343.5 469.4 343.9 468.7 344.5L454 356C453.4 356.5 452.8 356.9 452.1 357.2L422.5 372.8C422 373.1 421.5 373.4 421 373.7L402.7 386.2C402.1 386.6 401.4 387 400.7 387.3L363.2 404.4C362.8 404.6 362.3 404.8 361.9 405.1L340.2 417.7C339.6 418 339 418.3 338.4 418.6L316.6 427C315.7 427.3 314.8 427.8 314 428.3L290.2 443.2C289.5 443.7 288.7 444 287.9 444.3L270.1 450.9L262.3 453.8C261.3 454.2 260.4 454.6 259.6 455.2C259.6 455.2 259.5 455.2 259.5 455.3L258.7 455.8L257.8 456.4L249.7 461.6C248.8 462.2 247.8 462.7 246.7 463L244.5 463.7L242.5 464.3L227.2 469.2C225.8 469.6 224.5 470.3 223.3 471.1L215.1 476.7C214.3 477.3 213.4 477.7 212.5 478.1L195 484.9C194.2 485.2 193.5 485.6 192.8 486L180.6 493.2C179.8 493.7 179 494 178.1 494.3L166.8 498L164.9 498.6L162.1 499.5C161.3 499.8 160.4 500.1 159.7 500.6L150 505.9C149.1 506.4 148.1 506.8 147.1 507L139.6 508.9C138.1 509.3 136.7 509.9 135.4 510.7L129.1 514.7C128.3 515.2 127.3 515.7 126.4 516L117.4 519.1C116.4 519.5 115.4 520 114.4 520.6L102.5 528L86.9998 527.9L85.5998 507.7L94.5998 484.2C95.0998 483 95.3998 481.7 95.4998 480.4L97.0998 465.6C97.1998 464.8 97.2998 464 97.5998 463.2L102 448.6C102.4 447.4 102.6 446.1 102.6 444.8L103.3 425.8V424.8V423.8V423.7C103.3 423.4 103.3 423 103.4 422.7L105.2 407.1C105.3 406.2 105.3 405.2 105.3 404.3L104.5 392L102.3 371.4C102.3 370.9 102.2 370.4 102.2 369.9L102.4 351.1V348.7V346.7C102.4 346.6 102.4 346.4 102.4 346.3C102.4 345.8 102.4 345.2 102.3 344.7L94.7998 286.3L94.3998 283.2L94.1998 280L92.9998 271C92.8998 270.4 92.7998 269.8 92.6998 269.3L89.4998 256.5C89.3998 256.2 89.2998 255.9 89.2998 255.6L88.0998 248.6C87.8998 247.3 87.4998 246 86.8998 244.8L82.8998 236.3C82.3998 235.3 82.0998 234.2 81.8998 233L79.6998 220.2C79.3998 218.7 78.9998 217.3 78.2998 215.9L73.9998 207.6C73.8998 207.3 73.6998 207.1 73.5998 206.8C73.4998 206.5 73.2998 206.2 73.1998 205.9C73.0998 205.6 72.9998 205.3 72.8998 204.9L69.5998 192C69.1998 190.4 68.4998 188.9 67.5998 187.5L62.4998 179.8C61.8998 178.9 61.3998 177.9 61.0998 176.9L57.5998 166.8C57.1998 165.8 56.7998 164.7 56.1998 163.8L50.7998 155C50.2998 154.2 49.8998 153.3 49.5998 152.4L45.7998 141.3C45.4998 140.5 45.1998 139.7 44.7998 139L37.4998 125.7C36.8998 124.5 36.3998 123.2 36.0998 121.9L32.8998 104.1L51.4998 99.4998L76.0998 102.5C76.8998 102.6 77.6998 102.6 78.4998 102.6L81.5998 102.5L82.6998 102.4H83.7998L106.3 101.5C107.6 101.5 108.8 101.6 110.1 101.9L129.6 107C130.5 107.2 131.4 107.4 132.4 107.4L154.8 108.9C156.1 109 157.4 109.3 158.7 109.8L173.1 115.6C174.6 116.2 176.2 116.5 177.8 116.6L200 117.8C201.1 117.8 202.1 118 203.1 118.4L222.5 124.4C224 124.9 225.5 125.1 227 125.1L250.6 124.9C252 124.9 253.4 125.1 254.8 125.6L270.5 130.9L277.1 133.1C278.3 133.5 279.6 133.8 280.9 133.8L300.2 135C301.4 135.1 302.7 135.3 303.8 135.8L321.5 142.4C323 142.9 324.5 143.3 326.1 143.3L346.8 144C347.8 144 348.8 144.2 349.7 144.4L354.3 145.6L359.5 147L367.9 149.3C368.7 149.5 369.5 149.7 370.3 149.7L371.3 149.8L395 152.3C396.1 152.4 397.2 152.7 398.2 153.1L418.6 160.8C419.5 161.1 420.4 161.4 421.3 161.5L451.9 166.9C453.2 167.1 454.4 167.5 455.6 168.1L470.6 175.9L472.3 176.8L474 177.7L476.3 178.9C477.7 179.7 479.3 180.1 480.9 180.4L498.9 183.1C500 183.3 501.2 183.6 502.2 184.1L515.8 190.2C516.9 190.7 518 191.1 519.2 191.3L533.8 193.9C534.9 194.1 536 194.5 537.1 195L551.9 202.1C552.3 202.3 552.8 202.5 553.2 202.7C553.8 202.9 554.3 203.1 554.9 203.2L556.6 203.6L560.5 204.5L573 207.5C574.2 207.8 575.5 208.3 576.6 208.9L588.2 215.8C588.9 216.2 589.7 216.6 590.4 216.9L605.7 222.8C607.1 223.3 608.4 224.1 609.5 225L620 234.3L609.5 247.6C608.5 248.3 607.7 249.1 606.8 249.8Z" fill="#DCDCDC"/>
</g>
<mask id="mask2" mask-type="alpha" maskUnits="userSpaceOnUse" x="13" y="174" width="700" height="513">
<path d="M228.8 667.1L238.1 661.1C239.2 660.4 240.1 659.6 241 658.7L246.9 652.4C248 651.2 249.4 650.2 250.8 649.4L258.6 645.1C259.7 644.5 260.8 643.7 261.7 642.8L271.1 634.1C271.8 633.4 272.6 632.9 273.4 632.3L289.9 621.8C290.9 621.2 291.8 620.5 292.6 619.7L304.2 608.2C304.8 607.6 305.5 607 306.2 606.5L323.9 593.9C324.9 593.2 325.9 592.3 326.7 591.4L334.3 582.7C335.3 581.5 336.5 580.5 337.8 579.7L357.9 567.2C359.1 566.5 360.2 565.6 361.1 564.6L370.3 554.8C371.1 554 372 553.2 372.9 552.6L399 534.7C399.9 534.1 400.7 533.4 401.5 532.6L424 509C424.7 508.2 425.5 507.6 426.3 507L448.5 491.4C449.2 490.9 449.8 490.4 450.5 489.8L471.3 469.5C471.7 469.1 472.1 468.8 472.5 468.4L509.8 438.6C510.5 438 511.2 437.4 511.8 436.7L528.8 417.5C529.2 417 529.6 416.6 530.1 416.2L558.9 390.3C559.6 389.7 560.2 389 560.8 388.2L574 371.1C574.5 370.4 575.1 369.7 575.8 369.1L593.9 352.4C594.3 352.1 594.6 351.7 595 351.3L612.7 331.6C613 331.3 613.3 331 613.5 330.7L633.6 311.5C634.3 310.8 635 310 635.6 309.2L644.6 296.5C645.2 295.7 645.8 294.9 646.5 294.3L661.5 279.8C662.1 279.2 662.6 278.6 663.1 278L676.4 260.4C676.6 260.1 676.9 259.8 677.1 259.5L687.5 243.4C687.8 242.9 688.2 242.4 688.6 241.9L702.1 225.6C703 224.5 703.8 223.2 704.4 221.9L712.8 203L697.3 195.1C695.6 194.3 693.8 193.7 692 193.5L673.1 191.2C672.2 191.1 671.3 190.9 670.5 190.7L655.5 186.3C654 185.8 652.4 185.6 650.8 185.6L629.1 185.9C627.9 185.9 626.8 185.8 625.6 185.6L607 181.8C605.6 181.5 604.1 181.4 602.7 181.5L585.6 182.7C584.3 182.8 583 182.7 581.7 182.5L564.7 179.5C563.3 179.3 561.8 179.2 560.4 179.3L539.4 181.4C537.7 181.6 535.9 181.5 534.2 181.1L507.9 175C506.3 174.6 504.7 174.5 503.1 174.6L467.1 177.2C466.1 177.3 465.1 177.3 464.1 177.1L439 174.2C437.6 174 436.3 174.1 434.9 174.3L406.4 178.4C405.5 178.5 404.7 178.6 403.8 178.6L382 178.2C380.8 178.2 379.5 178.3 378.3 178.6L354.8 183.7C353.1 184.1 351.4 184.2 349.7 184L328 181.6C326.5 181.4 324.9 181.5 323.4 181.8L301.4 185.9C300 186.2 298.6 186.2 297.2 186.1L270 184C268.2 183.9 266.4 184 264.7 184.5L238.2 191.4C236.6 191.8 235 192 233.3 191.9L209.8 190.6C208.5 190.5 207.1 190.6 205.8 190.9L180.5 195.9C178.8 196.2 177.1 196.3 175.3 196.1L157.5 193.7C155.9 193.5 154.2 193.5 152.5 193.8L126.9 198.5C125.9 198.7 124.9 198.8 123.9 198.8L100.6 198.6C99.0002 198.6 97.5002 198.8 95.9002 199.2L65.1002 208.3C64.3002 208.6 63.4002 208.7 62.6002 208.8L33.9002 212.5L13.2002 223.6L22.4002 243.7C23.1002 245.2 24.1002 246.6 25.2002 247.9L37.2002 260.8C37.8002 261.5 38.4002 262.2 38.9002 262.9L46.4002 274.3C47.0002 275.3 47.8002 276.2 48.7002 277.1L57.3002 285.4C58.2002 286.2 58.9002 287.2 59.6002 288.2L66.4002 298.6C67.1002 299.7 68.0002 300.7 69.0002 301.7L76.9002 308.9C78.2002 310.1 79.3002 311.5 80.2002 313.1L87.5002 326.6C88.1002 327.7 88.8002 328.7 89.6002 329.6L96.8002 337.7C97.9002 338.9 98.8002 340.3 99.4002 341.8L105.5 355.6C106.1 356.9 106.8 358.1 107.8 359.2L114.7 367.6C115.6 368.7 116.4 370 117 371.3L120.4 378.9C120.5 379.3 120.8 379.7 120.9 380L128.1 393.4C128.4 394 128.7 394.5 128.9 395.1L160.5 475.2C160.8 475.9 161 476.6 161.2 477.3L167.5 503.4C167.6 504 167.8 504.6 168 505.2L176.3 527.7L180.8 541.3C181.1 542.3 181.3 543.2 181.5 544.2L183.9 562.2C184 562.6 184 563.1 184.1 563.4L189.2 587.4C189.5 588.7 189.6 590.1 189.5 591.5L188.7 609.2C188.6 610.2 188.7 611.2 188.8 612.3L191.3 629.4C191.5 630.8 191.5 632.2 191.3 633.6L187.8 662.8L195.5 686.4L214.3 681.7L226.1 669.5C226.8 668.6 227.8 667.8 228.8 667.1Z" fill="white"/>
</mask>
<g mask="url(#mask2)">
<path d="M712.9 202.9L704.5 221.8C703.9 223.1 703.2 224.3 702.3 225.4C702.3 225.4 702.3 225.5 702.2 225.5L701.4 226.4L700.5 227.4L688.7 241.7C688.3 242.2 687.9 242.7 687.6 243.2L677.2 259.3C677 259.6 676.8 259.9 676.5 260.2L663.2 277.8C662.7 278.5 662.2 279.1 661.6 279.6L646.6 294.1C645.9 294.8 645.2 295.5 644.7 296.3L635.7 309C635.1 309.8 634.4 310.6 633.7 311.3L619.9 324.4L615 327.7L614.3 328.2C613.1 329 611.7 329.7 610.3 330.2L583.1 339.6C581.3 340.2 579.7 341.1 578.2 342.3L555.5 360.2C554.1 361.3 552.6 362.1 551 362.8L527.8 371.5C526.5 372 525.2 372.6 524.1 373.4L501.8 388.9C500.3 390 498.6 390.7 496.9 391.3L478.7 396.5C477 397 475.4 397.7 474 398.7L451.2 414.1C450.3 414.7 449.4 415.2 448.4 415.7L425.7 425.3C424.2 426 422.7 426.8 421.5 427.9L395.5 449.7C394.8 450.3 394.1 450.8 393.3 451.3L366.7 467L351.2 486.5L368.5 502.1C369.8 503.3 371.3 504.3 373 505L390 512.4C390.9 512.8 391.7 513.2 392.5 513.8L404.5 521.7C405.5 522.4 406.7 523 407.9 523.4L408.5 523.6L409.5 524L401.3 532.6C400.5 533.4 399.7 534.1 398.8 534.7L375.2 551.1L374.4 551.7L373.6 552.3L372.9 552.8C372 553.4 371.1 554.2 370.3 555L361.1 564.8C360.1 565.8 359.1 566.7 357.9 567.4L337.8 579.9C336.5 580.7 335.3 581.7 334.3 582.9L326.7 591.6C325.9 592.5 324.9 593.4 323.9 594.1L316.5 599.3L314.9 600.5L306.2 606.7C305.5 607.2 304.8 607.8 304.2 608.4L292.6 619.9C291.8 620.7 290.9 621.4 289.9 622L273.4 632.5C272.6 633 271.8 633.6 271.1 634.3L270.2 635L261.7 642.9C260.7 643.8 259.7 644.5 258.6 645.2L250.8 649.5C249.3 650.3 248 651.3 246.9 652.5L241 658.7C240.2 659.6 239.2 660.4 238.1 661.1L228.8 667.1C227.8 667.8 226.9 668.6 226.1 669.4L214.2 681.6L195.4 686.3L187.7 662.7L191.2 633.5C191.4 632.1 191.4 630.7 191.2 629.3L188.7 612.2C188.6 611.2 188.5 610.2 188.6 609.1L189.4 591.4C189.5 590 189.4 588.6 189.1 587.3L184 563.3C183.9 562.9 183.9 562.5 183.8 562.1L181.4 544.1C181.3 543.1 181 542.1 180.7 541.2L176.2 527.6L167.9 505.1C167.7 504.5 167.5 503.9 167.4 503.3L166.6 500L166.4 499L166.2 498L161.1 477.1C160.9 476.4 160.7 475.7 160.4 475L138.5 419.4L138.1 418.5L137.7 417.5L128.8 394.9C128.6 394.3 128.3 393.7 128 393.2L120.8 379.8C120.6 379.5 120.4 379.1 120.3 378.7L116.9 371.1C116.3 369.8 115.6 368.5 114.6 367.4L107.7 359C106.8 357.9 106 356.7 105.5 355.4L102.5 348.7L101.5 346.5L100.2 343.7L99.3002 341.7C98.6002 340.2 97.7002 338.8 96.7002 337.6L89.5002 329.5C89.2002 329.2 89.0002 328.9 88.7002 328.5C88.4002 328.1 88.1002 327.7 87.9002 327.3C87.7002 327.1 87.6002 326.8 87.4002 326.5L80.1002 313C79.3002 311.4 78.1002 310 76.8002 308.8L68.9002 301.6C67.9002 300.7 67.0002 299.7 66.3002 298.5L59.5002 288.1C58.9002 287.1 58.1002 286.2 57.2002 285.3L48.6002 277C47.8002 276.2 47.0002 275.2 46.4002 274.2L38.9002 262.8C38.4002 262 37.8002 261.3 37.2002 260.7L25.2002 247.8C24.0002 246.6 23.1002 245.1 22.4002 243.6L13.2002 223.5L33.9002 212.4L62.6002 208.7C63.4002 208.6 64.3002 208.4 65.1002 208.2L71.0002 206.4L72.0002 206.1L73.0002 205.8L96.0002 199C96.7002 198.8 97.5002 198.6 98.2002 198.5C98.5002 198.4 98.9002 198.4 99.2002 198.4C99.5002 198.4 99.9002 198.4 100.2 198.4C100.4 198.4 100.5 198.4 100.6 198.4L123.9 198.6C124.9 198.6 125.9 198.5 126.9 198.3L152.5 193.6C154.1 193.3 155.8 193.3 157.5 193.5L175.3 195.9C177 196.1 178.8 196 180.5 195.7L205.8 190.7C207.1 190.4 208.4 190.4 209.7 190.4L233.2 191.7C234.8 191.8 236.5 191.6 238.1 191.2L264.6 184.3C266.3 183.9 268.1 183.7 269.9 183.8H270L297.1 185.9C298.5 186 299.9 185.9 301.3 185.7L323.3 181.6C324.8 181.3 326.4 181.3 327.9 181.4L349.6 183.8C351.3 184 353 183.9 354.7 183.5L378.2 178.4C379.4 178.1 380.7 178 381.9 178L403.7 178.4C404.6 178.4 405.4 178.4 406.3 178.2L424.9 175.5L426.9 175.2L429 174.9L434.8 174.1C436.2 173.9 437.5 173.9 438.9 174L464 176.9C465 177 466 177 467 177L471.7 176.7L473.6 176.6L475.5 176.5L503 174.5C504.6 174.4 506.2 174.5 507.8 174.9L534.1 181C535.8 181.4 537.6 181.5 539.3 181.3L560.3 179.2C561.7 179.1 563.2 179.1 564.6 179.4L581.6 182.4C582.9 182.6 584.2 182.7 585.5 182.6L602.6 181.4C604.1 181.3 605.5 181.4 606.9 181.7L625.5 185.5C626.6 185.7 627.8 185.9 629 185.8L650.7 185.5C652.3 185.5 653.9 185.7 655.5 186.2L670.5 190.6C671 190.7 671.5 190.9 672 191C672.4 191.1 672.7 191.1 673.1 191.2L683.9 192.5L691.3 193.4L691.9 193.5C693.8 193.7 695.6 194.2 697.2 195.1L712.9 202.9Z" fill="white"/>
<path d="M697.9 194C696.7 193.4 695.6 193 694.3 192.7C693.6 192.5 692.9 192.4 692.3 192.3L691.5 192.2L684.1 191.3L673.4 190C672.6 189.9 671.7 189.7 670.9 189.5L655.9 185.1C654.3 184.6 652.6 184.4 650.9 184.4L629.2 184.7C628.1 184.7 627 184.6 626 184.4L607.4 180.6C605.9 180.3 604.3 180.2 602.8 180.3L585.7 181.5C584.5 181.6 583.3 181.5 582.1 181.3L565.1 178.3C563.6 178 562 178 560.5 178.1L539.5 180.2C537.9 180.4 536.2 180.3 534.6 179.9L508.3 173.8C506.6 173.4 504.9 173.3 503.2 173.4L474.1 175.5L472.2 175.6L470.3 175.7L467.2 175.9C466.3 176 465.3 175.9 464.4 175.8L439.3 172.9C437.8 172.7 436.4 172.8 434.9 173L427.3 174.1L425.2 174.4L423.2 174.7L406.4 177.1C405.6 177.2 404.8 177.3 403.9 177.2L382.1 176.8C380.8 176.8 379.5 176.9 378.2 177.2L354.7 182.3C353.1 182.6 351.5 182.7 349.9 182.5L328.2 180.2C326.6 180 324.9 180.1 323.3 180.4L301.3 184.5C300 184.7 298.7 184.8 297.4 184.7L270.2 182.6H270.1C268.2 182.5 266.3 182.6 264.5 183.1L238 190C236.5 190.4 235 190.6 233.4 190.5L209.9 189.2C208.5 189.1 207.1 189.2 205.7 189.5L180.4 194.5C178.8 194.8 177.2 194.9 175.6 194.7L157.8 192.3C156 192.1 154.3 192.1 152.5 192.4L126.9 197.1C126 197.3 125 197.4 124.1 197.4L100.8 197.2H100.3C100 197.2 99.6 197.2 99.3 197.3C99 197.3 98.6 197.4 98.3 197.4C97.5 197.5 96.6 197.7 95.8 197.9L72.8 204.7L71.9 205L70.9 205.3L65 207.1C64.2 207.3 63.4 207.5 62.6 207.6L33.7 211.3L12 222.9L21.5 243.9C22.3 245.5 23.3 247 24.5 248.3L36.5 261.2C37.1 261.8 37.6 262.5 38.1 263.2L45.6 274.6C46.3 275.7 47.1 276.7 48 277.5L56.6 285.8C57.4 286.6 58.1 287.4 58.7 288.4L65.5 298.8C66.3 300 67.2 301.1 68.3 302L76.2 309.2C77.4 310.3 78.5 311.6 79.3 313.1L86.6 326.7C86.9 327.3 87.3 327.9 87.7 328.4C87.9 328.8 88.2 329.1 88.5 329.4C88.6 329.6 88.7 329.7 88.9 329.9L89.3 330.3L96.1 338C97.1 339.1 97.9 340.4 98.6 341.8L100.7 346.5L101.7 348.7L102.7 350.9L104.8 355.6C105.4 357 106.2 358.3 107.2 359.5L114.1 367.9C115 368.9 115.7 370.1 116.2 371.3L119.5 378.8C119.7 379.3 119.9 379.7 120.1 380L127.3 393.4C127.6 393.9 127.8 394.5 128 395L136.8 417.3L137.6 419.2L159.6 475.1C159.8 475.7 160.1 476.4 160.2 477.1L165.3 498.1L165.5 499.1L165.7 500.1L166.5 503.3C166.7 503.9 166.8 504.6 167.1 505.2L175.4 527.7L179.9 541.3C180.2 542.2 180.4 543.1 180.5 544.1L182.9 562.1C183 562.5 183.1 563 183.1 563.4L188.2 587.4C188.5 588.7 188.6 589.9 188.5 591.2L187.7 608.9C187.6 610 187.7 611.1 187.9 612.1L190.4 629.2C190.6 630.5 190.6 631.8 190.4 633.1L186.8 662.5L194.9 687.2L214.9 682.2L226.9 669.8C227.7 669 228.5 668.3 229.4 667.6L238.7 661.6C239.8 660.9 240.8 660 241.7 659.1L247.6 652.8C248.7 651.7 249.9 650.7 251.3 650L259.1 645.7C260.3 645 261.4 644.2 262.4 643.3L270.2 636.1L271.7 634.7C272.4 634.1 273.1 633.5 273.8 633.1L290.3 622.6C291.3 621.9 292.3 621.2 293.1 620.3L304.8 608.8C305.4 608.2 306 607.7 306.7 607.2L315.3 601.1L316.1 600.5L316.9 599.9L324.4 594.6C325.5 593.8 326.5 592.9 327.4 591.9L335 583.2C336 582.1 337.1 581.1 338.3 580.4L358.4 567.9C359.6 567.1 360.8 566.2 361.8 565.1L371 555.3C371.7 554.5 372.6 553.8 373.4 553.2L374.2 552.6L375 552L375.8 551.4L399.4 535.2C400.3 534.5 401.2 533.8 402 533L410.5 524.1L409.5 523.7L408.5 523.3L400.6 531.6C399.9 532.3 399.1 533 398.3 533.6L374.4 550L373.6 550.6L372.8 551.2L372.3 551.6C371.3 552.3 370.4 553.1 369.5 554L360.3 563.8C359.4 564.7 358.4 565.6 357.3 566.3L337.3 579C335.9 579.9 334.6 581 333.5 582.2L325.9 590.9C325.1 591.8 324.3 592.6 323.3 593.2L316 598.4L314.4 599.6L305.6 605.8C304.8 606.4 304.1 607 303.5 607.6L291.9 619.1C291.1 619.9 290.3 620.5 289.4 621.1L272.9 631.6C272 632.1 271.2 632.8 270.5 633.5L270.3 633.7L261.1 642.2C260.2 643 259.2 643.7 258.1 644.3L250.3 648.6C248.8 649.4 247.4 650.5 246.1 651.8L240.2 658C239.4 658.8 238.5 659.6 237.5 660.2L228.2 666.3C227.1 667 226.2 667.8 225.3 668.8L213.7 680.8L196.1 685.2L188.8 662.7L192.3 633.7C192.5 632.2 192.5 630.7 192.3 629.2L189.8 612.1C189.7 611.2 189.6 610.2 189.7 609.2L190.5 591.5C190.6 590 190.5 588.6 190.2 587.1L185.1 563.1C185 562.8 185 562.3 184.9 561.9L182.5 543.9C182.4 542.8 182.1 541.8 181.8 540.8L177.3 527.1L169 504.6C168.8 504.1 168.6 503.5 168.5 503L167.7 499.6L167.5 498.6L167.3 497.6L162.3 476.8C162.1 476 161.9 475.3 161.6 474.6L139.8 419.2L139.4 418.2L139 417.2L130 394.4C129.8 393.8 129.5 393.2 129.2 392.6L122 379.1C121.8 378.8 121.6 378.4 121.5 378.1L118.2 370.5C117.6 369.1 116.8 367.8 115.8 366.6L108.9 358.2C108 357.2 107.3 356 106.8 354.8L102.9 346.1L101.6 343.2L100.6 341.1C100.5 340.8 100.3 340.5 100.1 340.2C99.5 339 98.7 337.8 97.8 336.7L90.6 328.6C90.4 328.4 90.3 328.2 90.1 328C89.8 327.6 89.5 327.2 89.3 326.8C89.1 326.5 88.9 326.1 88.7 325.8L88.5 325.4L81.4 312.3C80.5 310.6 79.3 309.1 77.9 307.9L70 300.7C69.1 299.8 68.3 298.9 67.6 297.8L60.8 287.4C60.1 286.3 59.3 285.4 58.4 284.5L49.8 276.2C49 275.4 48.3 274.5 47.7 273.6L40.2 262.2C39.7 261.4 39.1 260.6 38.4 259.9L26.4 247C25.3 245.8 24.4 244.5 23.8 243.1L15 223.8L34.7 213.2L63.2 209.5C64.1 209.4 65 209.2 65.9 208.9L71.9 207.1L72.9 206.8L73.9 206.5L96.8 199.7C97.5 199.5 98.2 199.4 98.8 199.3C99.1 199.2 99.5 199.2 99.8 199.2C100.1 199.2 100.5 199.1 100.8 199.2C100.9 199.2 101 199.2 101.2 199.2L124.5 199.4C125.6 199.4 126.7 199.3 127.7 199.1L153.3 194.4C154.8 194.1 156.4 194.1 157.9 194.3L175.7 196.7C177.5 196.9 179.4 196.9 181.2 196.5L206.5 191.5C207.7 191.3 209 191.2 210.2 191.2L233.7 192.5C235.5 192.6 237.2 192.4 238.9 192L265.4 185.1C267 184.7 268.7 184.5 270.4 184.7H270.6L297.6 186.8C299.1 186.9 300.6 186.8 302.1 186.6L324.1 182.5C325.5 182.2 327 182.2 328.4 182.3L350.1 184.7C351.9 184.9 353.7 184.8 355.5 184.4L379 179.3C380.1 179.1 381.3 178.9 382.5 179L404.3 179.4C405.2 179.4 406.2 179.4 407.1 179.2L427.5 176.2L429.5 175.9L431.5 175.6L435.5 175C436.8 174.8 438.1 174.8 439.4 174.9L464.5 177.8C465.6 177.9 466.6 178 467.7 177.9L474 177.4L475.9 177.3L477.8 177.2L503.6 175.3C505.1 175.2 506.6 175.3 508.1 175.7L534.4 181.8C536.2 182.2 538.1 182.4 539.9 182.2L560.9 180.1C562.2 180 563.6 180 565 180.3L582 183.3C583.3 183.5 584.7 183.6 586.1 183.5L603.2 182.3C604.6 182.2 605.9 182.3 607.2 182.6L625.8 186.4C627 186.6 628.2 186.8 629.5 186.7L651.2 186.4C652.7 186.4 654.2 186.6 655.7 187L668.5 190.8L670.7 191.4C671.3 191.6 671.8 191.7 672.4 191.8C672.8 191.9 673.1 191.9 673.5 192L684.3 193.3L692.4 194.3C694.1 194.5 695.8 195 697.4 195.8L712 203.3L704 221.3C703.5 222.5 702.7 223.7 701.8 224.8L701.3 225.4L700.4 226.4L699.5 227.4L688.3 241C687.9 241.5 687.5 242 687.1 242.6L676.6 258.7C676.4 259 676.2 259.3 676 259.6L662.6 277.2C662.1 277.8 661.6 278.4 661.1 278.9L646.1 293.4C645.3 294.1 644.7 294.9 644.1 295.8L635.1 308.5C634.6 309.3 633.9 310 633.2 310.7L615.2 327.9L620.1 324.6L625 321.3L634.5 312.2C635.3 311.4 636 310.6 636.6 309.7L645.6 297C646.1 296.3 646.7 295.5 647.4 294.9L662.4 280.4C663 279.8 663.6 279.1 664.1 278.4L677.4 260.8C677.6 260.5 677.9 260.1 678.1 259.8L688.6 243.7C688.9 243.2 689.3 242.7 689.6 242.3L702 227.3L702.9 226.3L703.1 226.1C703.3 225.8 703.5 225.6 703.7 225.3C704.4 224.3 705 223.3 705.5 222.2L714.3 202.4L697.9 194Z" fill="#DCDCDC"/>
</g>
<mask id="mask3" mask-type="alpha" maskUnits="userSpaceOnUse" x="108" y="186" width="718" height="579">
<path d="M391.1 740.3L399.8 732.8C400.8 732 401.7 731 402.4 729.9L407.6 722.6C408.6 721.2 409.8 720 411.2 719L418.7 713.5C419.8 712.7 420.8 711.8 421.6 710.7L430 700.5C430.6 699.7 431.3 699 432.1 698.4L447.6 685.3C448.5 684.5 449.3 683.7 450 682.7L460.4 669.2C460.9 668.5 461.6 667.8 462.2 667.2L478.7 651.8C479.7 650.9 480.5 649.9 481.2 648.8L487.8 638.8C488.7 637.5 489.8 636.2 491 635.2L509.9 619.6C511 618.7 512 617.6 512.8 616.5L520.9 605.1C521.6 604.1 522.4 603.2 523.3 602.4L547.7 580.3C548.5 579.5 549.3 578.7 550 577.8L570 550.4C570.6 549.5 571.3 548.7 572.1 548L592.8 528.9C593.4 528.3 594 527.7 594.6 527L613.2 503.2C613.5 502.8 613.9 502.4 614.3 502L648.6 466.2C649.3 465.5 649.9 464.7 650.4 463.9L665.2 441.8C665.6 441.3 665.9 440.8 666.4 440.3L692.5 409.6C693.1 408.9 693.7 408.1 694.2 407.2L705.5 387.8C706 387 706.5 386.2 707.1 385.5L723.4 365.9C723.7 365.5 724.1 365.1 724.3 364.6L739.8 341.9C740 341.6 740.3 341.2 740.5 340.9L758.6 318.3C759.3 317.5 759.8 316.6 760.3 315.6L767.8 301.3C768.3 300.4 768.8 299.5 769.5 298.7L783 281.7C783.5 281 784 280.3 784.4 279.6L795.7 259.6C795.9 259.3 796.1 258.9 796.2 258.5L804.7 240.5C805 239.9 805.3 239.3 805.6 238.8L817.2 220.2C818 218.9 818.6 217.5 819.1 216.1L825.2 195.5L808.2 189.4C806.4 188.8 804.4 188.5 802.5 188.5L783.2 189C782.3 189 781.3 188.9 780.4 188.8L764.4 186.3C762.8 186 761.1 186 759.4 186.3L737.1 189.6C735.9 189.8 734.7 189.8 733.5 189.7L713.8 188.3C712.3 188.2 710.8 188.3 709.3 188.6L691.9 192.2C690.6 192.5 689.2 192.6 687.9 192.5L670 191.8C668.5 191.7 667 191.9 665.5 192.2L644.2 197.2C642.4 197.6 640.6 197.7 638.8 197.6L610.9 194.9C609.2 194.7 607.5 194.8 605.9 195.2L569.2 202.9C568.2 203.1 567.1 203.2 566.1 203.2L539.8 203.7C538.4 203.7 537 203.9 535.6 204.3L506.8 212.5C505.9 212.7 505 212.9 504.1 213L481.6 215.5C480.3 215.6 479.1 215.9 477.8 216.4L454.3 224.9C452.6 225.5 450.9 225.8 449.1 225.9L426.4 226.5C424.8 226.5 423.2 226.8 421.7 227.3L399.6 234.5C398.2 235 396.8 235.2 395.3 235.3L367 236.8C365.2 236.9 363.3 237.3 361.6 238L335.3 248.8C333.7 249.5 332 249.9 330.3 250L306 251.9C304.6 252 303.3 252.3 302 252.7L276.7 261.3C275 261.9 273.2 262.2 271.4 262.2H252.7C251 262.2 249.3 262.5 247.6 263L221.9 271.4C220.9 271.7 219.9 272 218.8 272.1L194.8 275.1C193.2 275.3 191.6 275.7 190.1 276.4L159.6 290.1C158.8 290.5 157.9 290.8 157.1 291L128.1 298.7L108.3 313L120.5 332.5C121.4 334 122.6 335.3 124 336.4L138.1 348C138.8 348.6 139.5 349.3 140.1 350L149.4 360.7C150.2 361.6 151.1 362.5 152.1 363.2L162.1 370.6C163.1 371.3 164 372.2 164.8 373.1L173.3 382.9C174.2 384 175.2 384.9 176.4 385.7L185.5 392C187 393.1 188.4 394.4 189.4 395.9L198.8 408.8C199.5 409.8 200.4 410.8 201.4 411.6L209.9 419C211.2 420.1 212.3 421.4 213.2 422.9L221.4 436.2C222.2 437.5 223.1 438.6 224.2 439.6L232.4 447.3C233.5 448.3 234.4 449.5 235.2 450.8L239.7 458.1C239.9 458.5 240.2 458.8 240.4 459.2L249.7 472C250.1 472.5 250.4 473.1 250.7 473.6L294.2 551.8C294.6 552.5 294.9 553.2 295.2 553.9L305.3 579.9C305.5 580.5 305.8 581.1 306.1 581.6L317.7 603.7L324.2 617.1C324.7 618 325 619 325.3 620L330.2 638.2C330.3 638.6 330.5 639.1 330.6 639.4L339.2 663.4C339.7 664.7 340 666.1 340.1 667.6L341.7 685.9C341.8 687 342 688 342.3 689L347.2 706.3C347.6 707.7 347.8 709.2 347.8 710.6L348.2 741.2L359.4 764.4L378.1 757L388.6 742.8C389.3 742 390.2 741.1 391.1 740.3Z" fill="white"/>
</mask>
<g mask="url(#mask3)">
<path d="M825.601 195.6L824.201 200.4L823.901 201.5L823.601 202.6L819.601 216.1C819.201 217.5 818.601 218.9 817.801 220.2L811.301 230.5L810.001 230.7L809.601 230.8C807.901 231.1 806.301 231.7 804.801 232.5L771.101 250.2C770.201 250.7 769.201 251.1 768.201 251.4L742.701 259.2C741.301 259.6 740.001 260.2 738.701 261L712.901 277C712.101 277.5 711.301 277.9 710.401 278.2L689.101 287C687.901 287.5 686.701 288.1 685.701 288.9L665.101 303.7C663.601 304.8 662.001 305.6 660.301 306.1L638.301 313C636.701 313.5 635.301 314.2 633.901 315.1L624.901 321.2L620.001 324.5L615.101 327.8L614.401 328.3C613.201 329.1 611.801 329.8 610.401 330.3L583.201 339.7C581.401 340.3 579.801 341.2 578.301 342.4L555.601 360.3C554.201 361.4 552.701 362.2 551.101 362.9L527.901 371.6C526.601 372.1 525.301 372.7 524.201 373.5L501.901 389C500.401 390.1 498.701 390.8 497.001 391.4L478.801 396.6C477.101 397.1 475.501 397.8 474.101 398.8L451.301 414.2C450.401 414.8 449.501 415.3 448.501 415.8L425.801 425.4C424.301 426.1 422.801 426.9 421.601 428L395.601 449.8C394.901 450.4 394.201 450.9 393.401 451.4L366.701 467L351.201 486.5L368.501 502.1C369.801 503.3 371.301 504.3 373.001 505L390.001 512.4C390.901 512.8 391.701 513.2 392.501 513.8L404.501 521.7C405.501 522.4 406.701 523 407.901 523.4L408.501 523.6L409.501 524L410.501 524.4L419.601 527.8C420.801 528.2 421.901 528.8 423.001 529.5L434.001 536.7C435.201 537.5 436.501 538.1 437.801 538.6L448.501 542.2C450.301 542.8 451.901 543.7 453.401 544.9L466.201 554.9C467.201 555.7 468.301 556.4 469.501 556.9L479.901 561.7C481.501 562.4 482.901 563.4 484.201 564.5L495.901 575.2C497.001 576.2 498.301 577.1 499.601 577.8L509.801 583C511.201 583.7 512.401 584.6 513.501 585.6L519.901 591.5C520.201 591.8 520.601 592.1 520.901 592.3L527.501 597.5L528.301 598.1L523.601 602.4C522.701 603.2 521.901 604.1 521.201 605.1L513.101 616.4C512.301 617.6 511.301 618.6 510.201 619.6L491.301 635.2C490.101 636.2 489.001 637.4 488.101 638.8L481.501 648.8C480.801 649.9 479.901 650.9 479.001 651.8L462.501 667.2C461.801 667.8 461.201 668.5 460.701 669.2L460.301 669.7L459.701 670.5L459.101 671.3L450.401 682.6C449.701 683.5 448.901 684.4 447.901 685.2L432.201 698.4C431.401 699.1 430.701 699.8 430.101 700.5L421.601 710.7C420.701 711.7 419.801 712.7 418.701 713.5L411.201 719C409.801 720 408.601 721.2 407.601 722.7L402.401 729.9C401.601 731 400.801 731.9 399.801 732.8L391.101 740.3C390.201 741.1 389.301 742.1 388.601 743.1L378.201 757.2L359.501 764.6L348.201 741.4L347.801 710.8C347.801 709.3 347.601 707.9 347.201 706.5L342.301 689.2C342.001 688.2 341.801 687.1 341.701 686.1L340.101 667.8C340.001 666.4 339.701 665 339.201 663.6L330.601 639.6C330.501 639.2 330.301 638.8 330.201 638.4L325.201 620.2C324.901 619.2 324.601 618.2 324.101 617.3L317.601 603.9L315.901 600.8L315.401 599.9L314.901 599L305.901 581.9C305.601 581.3 305.301 580.8 305.101 580.2L295.201 554C294.901 553.3 294.601 552.6 294.201 551.9L270.201 508.7L250.701 473.8C250.401 473.2 250.001 472.7 249.701 472.1L244.901 465.4L244.301 464.6L243.701 463.8L240.501 459.3C240.301 459 240.001 458.6 239.801 458.2L235.301 450.9C234.501 449.6 233.601 448.5 232.501 447.4L224.301 439.7C223.201 438.7 222.301 437.5 221.501 436.3L213.301 423C212.401 421.6 211.301 420.3 210.001 419.1L201.501 411.7C200.501 410.9 199.701 409.9 198.901 408.9L195.601 404.3L194.901 403.4L194.201 402.5L189.501 396C188.401 394.5 187.101 393.2 185.501 392.1L176.401 385.8C175.301 385 174.201 384.1 173.301 383L164.801 373.2C164.001 372.3 163.101 371.4 162.101 370.7L152.101 363.3C151.101 362.6 150.201 361.7 149.401 360.8L140.101 350C139.501 349.3 138.801 348.6 138.101 348L124.001 336.4C122.601 335.3 121.501 333.9 120.501 332.5L108.301 313L128.101 298.7L157.101 290.9C158.001 290.7 158.801 290.4 159.601 290L190.101 276.3C191.601 275.6 193.201 275.2 194.801 275L218.801 272C219.801 271.9 220.901 271.6 221.901 271.3L247.601 262.9C249.301 262.4 251.001 262.1 252.701 262.1H271.401C273.201 262.1 275.001 261.8 276.701 261.2L302.001 252.6C303.301 252.2 304.701 251.9 306.001 251.8L330.301 249.9C332.001 249.8 333.701 249.4 335.301 248.7L361.601 237.9C363.301 237.2 365.101 236.8 367.001 236.7L395.301 235.2C396.801 235.1 398.201 234.8 399.601 234.4L421.701 227.2C423.201 226.7 424.801 226.4 426.501 226.4L449.201 225.8C451.001 225.8 452.701 225.4 454.401 224.8L477.901 216.3C479.101 215.9 480.401 215.6 481.701 215.4L496.101 213.8L498.201 213.6L500.001 213.4L504.201 212.9C505.101 212.8 506.001 212.6 506.901 212.4L535.701 204.2C537.101 203.8 538.501 203.6 539.901 203.6L556.301 203.3L560.301 203.2L564.301 203.1H566.101C567.101 203.1 568.201 203 569.201 202.8L605.901 195.1C607.501 194.8 609.201 194.7 610.901 194.8L638.801 197.5C640.601 197.7 642.401 197.6 644.201 197.1L665.501 192.1C667.001 191.8 668.501 191.6 670.001 191.7L672.101 191.8L684.101 192.3L687.901 192.5C689.101 192.5 690.301 192.5 691.501 192.2C691.601 192.2 691.801 192.2 691.901 192.1L709.301 188.5C710.801 188.2 712.301 188.1 713.801 188.2L733.501 189.6C734.701 189.7 735.901 189.6 737.101 189.5L759.401 186.2C761.101 186 762.701 186 764.401 186.2L780.401 188.7C781.301 188.9 782.201 188.9 783.201 188.9L803.001 188.7C804.901 188.6 806.901 188.9 808.701 189.6L825.601 195.6Z" fill="white"/>
<path d="M808.9 188.7C807 188 804.9 187.7 802.9 187.8L783.1 188C782.2 188 781.4 188 780.5 187.8L764.5 185.3C762.7 185 761 185 759.2 185.3L736.9 188.6C735.8 188.8 734.7 188.8 733.5 188.7L713.8 187.3C712.2 187.2 710.6 187.3 709 187.6L691.6 191.2C690.4 191.4 689.1 191.6 687.8 191.5L684 191.3L672.1 190.8L669.9 190.7C669.3 190.7 668.7 190.7 668.1 190.7C667.1 190.8 666.1 190.9 665.2 191.1L643.9 196.1C642.2 196.5 640.5 196.6 638.8 196.4L610.9 193.7C609.1 193.5 607.3 193.6 605.6 194L568.9 201.7C568 201.9 567 202 566 202L560.3 202.1L556.3 202.2L552.7 202.3L539.7 202.5C538.2 202.5 536.7 202.8 535.2 203.2L506.4 211.4C505.6 211.6 504.7 211.8 503.9 211.9L498.1 212.5L496 212.7L493.9 212.9L481.4 214.3C480.1 214.4 478.7 214.8 477.4 215.2L453.9 223.7C452.3 224.3 450.7 224.6 449 224.6L426.3 225.2C424.6 225.3 422.9 225.5 421.3 226.1L399.2 233.3C397.9 233.7 396.5 234 395.2 234.1L366.9 235.6C364.9 235.7 363 236.2 361.2 236.9L334.9 247.7C333.4 248.3 331.8 248.7 330.2 248.8L305.9 250.7C304.4 250.8 303 251.1 301.6 251.6L276.3 260.2C274.7 260.8 273 261 271.4 261.1H252.7C250.9 261.1 249 261.4 247.3 262L221.6 270.4C220.7 270.7 219.7 270.9 218.7 271.1L194.7 274.1C193 274.3 191.3 274.8 189.7 275.5L159.2 289.2C158.4 289.5 157.6 289.8 156.8 290L127.6 297.8L106.9 312.7L119.6 333C120.6 334.6 121.8 336 123.3 337.2L137.4 348.8C138.1 349.4 138.7 350 139.3 350.6L148.6 361.4C149.5 362.4 150.4 363.3 151.5 364.1L161.5 371.5C162.4 372.2 163.3 373 164.1 373.9L172.6 383.7C173.6 384.8 174.7 385.8 175.9 386.6L185 392.9C186.4 393.9 187.7 395.1 188.7 396.5L193.1 402.6L193.8 403.5L194.5 404.4L198.2 409.4C199 410.5 199.9 411.5 200.9 412.4L209.4 419.8C210.6 420.9 211.6 422.1 212.5 423.4L220.7 436.7C221.5 438 222.5 439.3 223.7 440.3L231.9 448C232.9 449 233.8 450.1 234.6 451.3L239.1 458.6C239.3 459 239.7 459.5 239.9 459.8L242.9 464L243.5 464.8L244.1 465.7L249.1 472.6C249.5 473.1 249.8 473.6 250.1 474.2L270.4 510.7L293.6 552.3C293.9 552.9 294.3 553.6 294.5 554.2L304.6 580.2C304.8 580.8 305.1 581.4 305.4 582L314.5 599.3L315 600.2L315.5 601.1L317.1 604.1L323.6 617.5C324 618.4 324.4 619.3 324.6 620.3L329.6 638.5C329.7 638.9 329.9 639.4 330 639.8L338.6 663.8C339.1 665.1 339.3 666.4 339.4 667.7L341 686C341.1 687.1 341.3 688.2 341.6 689.3L346.5 706.6C346.9 707.9 347.1 709.3 347.1 710.7L347.5 741.5L359.2 765.7L379.1 757.9L389.7 743.5C390.4 742.5 391.2 741.7 392 740.9L400.7 733.4C401.7 732.5 402.7 731.5 403.5 730.4L408.7 723.1C409.6 721.8 410.8 720.6 412.1 719.7L419.6 714.2C420.7 713.3 421.8 712.4 422.7 711.3L431.1 701.1C431.7 700.4 432.4 699.7 433.1 699.1L448.6 686C449.6 685.2 450.4 684.3 451.2 683.3L459.7 672.2L460.3 671.4L460.9 670.6L461.5 669.8C462 669.1 462.6 668.5 463.2 667.9L479.7 652.5C480.7 651.6 481.6 650.5 482.4 649.4L489 639.4C489.8 638.1 490.9 637 492 636L510.9 620.4C512.1 619.4 513.1 618.3 514 617.1L522.1 605.8C522.8 604.9 523.5 604 524.3 603.3L529.1 598.9L528.3 598.3L527.5 597.7L522.9 601.9C522 602.7 521.1 603.7 520.4 604.7L512.3 616.1C511.5 617.2 510.6 618.2 509.5 619.1L490.6 634.7C489.3 635.8 488.1 637.1 487.2 638.5L480.6 648.5C479.9 649.5 479.1 650.5 478.2 651.3L461.7 666.7C461 667.4 460.4 668.1 459.8 668.8L459.6 669.1L459 669.9L458.4 670.7L449.5 682.2C448.8 683.1 448 683.9 447.2 684.6L431.7 697.7C430.9 698.4 430.2 699.1 429.5 699.9L421.1 710.1C420.3 711.1 419.4 711.9 418.4 712.7L410.9 718.2C409.4 719.3 408.1 720.6 407.1 722.1L401.9 729.4C401.2 730.4 400.4 731.3 399.4 732.1L390.7 739.6C389.7 740.5 388.8 741.5 388.1 742.5L377.8 756.4L360.2 763.4L349.2 741.2L348.8 710.9C348.8 709.4 348.6 707.8 348.1 706.3L343.2 689C342.9 688.1 342.7 687.1 342.7 686.1L341.1 667.8C341 666.3 340.7 664.8 340.1 663.4L331.5 639.4C331.4 639 331.3 638.6 331.1 638.2L326.1 620C325.8 618.9 325.4 617.9 324.9 616.9L318.3 603.5L316.6 600.3L316.1 599.4L315.6 598.5L306.6 581.5C306.3 581 306.1 580.4 305.9 579.9L295.8 553.9C295.5 553.1 295.2 552.4 294.8 551.7L270.2 506.7L251.6 473.3C251.3 472.7 250.9 472.1 250.5 471.5L245.9 465.1L245.3 464.3L244.7 463.4L241.3 458.6C241.1 458.4 240.9 458 240.7 457.6L236.2 450.3C235.4 449 234.4 447.7 233.2 446.6L225 438.9C224 437.9 223.1 436.9 222.3 435.7L214.1 422.4C213.1 420.9 212 419.5 210.6 418.3L202.1 410.9C201.2 410.1 200.4 409.2 199.7 408.3L196.7 404.2L196 403.3L195.3 402.4L190.3 395.5C189.1 393.9 187.7 392.5 186.1 391.4L177 385.1C175.9 384.4 175 383.5 174.1 382.5L165.6 372.7C164.7 371.7 163.8 370.8 162.7 370L152.7 362.6C151.8 361.9 150.9 361.1 150.2 360.2L140.9 349.4C140.2 348.6 139.5 348 138.8 347.3L124.7 335.7C123.4 334.6 122.3 333.4 121.5 332L109.8 313.3L128.7 299.7L157.5 292C158.4 291.8 159.3 291.4 160.2 291L190.7 277.4C192.1 276.8 193.6 276.4 195.1 276.2L219.1 273.2C220.2 273.1 221.3 272.8 222.4 272.4L248.1 264C249.6 263.5 251.3 263.2 252.9 263.2H271.6C273.5 263.2 275.4 262.9 277.2 262.2L302.5 253.6C303.7 253.2 305 252.9 306.3 252.8L330.6 250.9C332.4 250.7 334.2 250.3 335.9 249.6L362.2 238.8C363.8 238.1 365.5 237.7 367.2 237.6L395.5 236.1C397 236 398.6 235.7 400 235.2L422.1 228C423.6 227.5 425.1 227.3 426.6 227.2L449.3 226.6C451.2 226.6 453 226.2 454.8 225.6L478.3 217.1C479.4 216.7 480.6 216.4 481.8 216.3L498 214.5L499.7 214.3L501.2 214.1L504.3 213.8C505.2 213.7 506.2 213.5 507.1 213.2L535.9 205C537.2 204.6 538.5 204.4 539.9 204.4L560.2 204L564.2 203.9H566.1C566.7 203.9 567.3 203.9 567.8 203.8C568.3 203.7 568.8 203.7 569.3 203.6L605.9 195.9C607.5 195.6 609 195.5 610.6 195.7L638.5 198.4C640.4 198.6 642.4 198.5 644.2 198L665.5 193C666.9 192.7 668.3 192.6 669.7 192.6L683.7 193.2L687.6 193.4C688.8 193.5 690.1 193.4 691.3 193.2C691.5 193.2 691.7 193.1 691.9 193.1L694.1 192.6L709.3 189.5C710.7 189.2 712.1 189.1 713.5 189.2L733.2 190.6C734.5 190.7 735.8 190.7 737 190.5L759.3 187.2C760.8 187 762.4 187 764 187.2L780 189.7C781 189.8 782 189.9 782.9 189.9L802.7 189.7C804.5 189.7 806.3 189.9 808 190.5L824.1 196.2L822.8 200.7L822.5 201.8L822.2 203L818.4 215.9C818 217.3 817.4 218.6 816.7 219.8L809.8 230.9L811.1 230.7L812.4 230.5L818.4 220.9C819.3 219.5 819.9 218.1 820.4 216.5L824.6 202.4L824.9 201.2L825.2 200.1L826.7 195L808.9 188.7Z" fill="#DCDCDC"/>
</g>
<mask id="mask4" mask-type="alpha" maskUnits="userSpaceOnUse" x="212" y="192" width="694" height="635">
<path d="M553.5 797.9L561 789.2C561.9 788.2 562.6 787.1 563.2 786L567.3 778.1C568.1 776.6 569.1 775.2 570.4 774L577 767.5C578 766.6 578.8 765.5 579.5 764.3L586.4 753C586.9 752.2 587.5 751.3 588.2 750.6L601.7 735.5C602.5 734.6 603.2 733.7 603.8 732.6L612.2 717.8C612.6 717 613.1 716.2 613.7 715.5L627.9 697.9C628.7 696.9 629.4 695.8 630 694.6L635.1 683.8C635.8 682.3 636.7 681 637.8 679.8L654.3 661.7C655.3 660.6 656.1 659.4 656.8 658.2L663.2 645.8C663.7 644.7 664.4 643.8 665.2 642.8L686.2 617.5C686.9 616.6 687.6 615.7 688.1 614.7L704 584.8C704.5 583.8 705.1 582.9 705.8 582.1L723.5 560.2C724.1 559.5 724.6 558.8 725 558L740.1 531.8C740.4 531.3 740.7 530.9 741 530.4L769.9 490C770.5 489.2 771 488.4 771.4 487.5L782.9 463.5C783.2 462.9 783.5 462.4 783.8 461.8L805.2 427.7C805.7 426.9 806.2 426 806.5 425.1L814.9 404.3C815.2 403.4 815.7 402.6 816.1 401.8L829.5 380C829.8 379.5 830 379.1 830.3 378.6L842.2 354C842.4 353.6 842.6 353.3 842.8 352.9L857.5 328C858 327.1 858.5 326.1 858.8 325.1L864.2 309.8C864.5 308.8 865 307.9 865.5 307L876.4 288.2C876.8 287.5 877.2 286.7 877.5 285.9L885.8 264.5C885.9 264.1 886.1 263.8 886.2 263.4L892.1 244.4C892.3 243.8 892.5 243.2 892.8 242.6L901.7 222.5C902.3 221.1 902.7 219.7 902.9 218.2L906 196.9L888.3 193.3C886.4 192.9 884.5 192.9 882.5 193.2L863 196.2C862.1 196.3 861.2 196.4 860.2 196.4L844 196.2C842.3 196.2 840.7 196.4 839.1 196.9L817.5 203.4C816.3 203.8 815.2 204 813.9 204.1L794.2 205.5C792.7 205.6 791.2 205.9 789.8 206.4L773 212.4C771.7 212.9 770.4 213.2 769.1 213.3L751.2 215.1C749.7 215.3 748.2 215.6 746.8 216.2L726.4 224.2C724.7 224.9 722.9 225.3 721.1 225.3L693.1 226.6C691.4 226.7 689.8 227 688.2 227.6L653 240.4C652 240.8 651 241 650 241.2L624.1 245.4C622.7 245.6 621.3 246 620 246.6L592.7 258.8C591.9 259.2 591 259.5 590.1 259.7L568.2 265.4C567 265.7 565.7 266.2 564.6 266.8L542.6 278.6C541 279.4 539.3 280 537.6 280.3L515.2 284.1C513.6 284.4 512.1 284.9 510.6 285.6L489.8 295.9C488.5 296.6 487.1 297 485.7 297.3L457.9 302.9C456.1 303.3 454.3 303.9 452.8 304.9L428.3 319.3C426.8 320.2 425.2 320.8 423.5 321.2L399.7 326.6C398.4 326.9 397.1 327.4 395.8 328L372 340.2C370.4 341 368.7 341.6 366.9 341.9L348.4 344.6C346.7 344.9 345 345.4 343.5 346.1L319.2 358.1C318.3 358.6 317.3 359 316.2 359.2L292.8 365.6C291.2 366 289.7 366.7 288.3 367.5L260.1 385.4C259.3 385.9 258.6 386.3 257.7 386.7L230.1 398.5L212.5 415.4L227.3 432.9C228.4 434.2 229.8 435.4 231.3 436.3L246.9 445.8C247.7 446.3 248.5 446.8 249.2 447.5L259.9 456.8C260.8 457.6 261.8 458.3 262.9 458.9L273.8 464.8C274.9 465.4 275.9 466.1 276.8 466.9L286.6 475.4C287.6 476.3 288.8 477.1 290.1 477.7L300 482.7C301.7 483.5 303.2 484.6 304.5 486L315.7 497.5C316.6 498.4 317.6 499.2 318.6 499.9L328.1 506C329.5 506.9 330.8 508 331.9 509.3L341.9 521.3C342.9 522.4 344 523.4 345.2 524.3L354.5 530.7C355.7 531.6 356.8 532.6 357.8 533.7L363.3 540.3C363.6 540.6 363.9 541 364.1 541.2L375.1 552.6C375.6 553.1 376 553.6 376.4 554.1L430.6 625.3C431.1 625.9 431.5 626.5 431.8 627.2L445.5 651.5C445.8 652.1 446.2 652.6 446.5 653.1L461.2 673.3L469.6 685.6C470.2 686.5 470.7 687.4 471.1 688.3L478.6 705.6C478.8 706 479 706.4 479.2 706.8L491.1 729.3C491.8 730.6 492.3 731.9 492.6 733.3L496.8 751.2C497 752.2 497.4 753.2 497.8 754.2L505.1 770.6C505.7 771.9 506.1 773.3 506.3 774.8L511 805L525.4 826.4L542.9 816.4L551.2 800.9C552 799.9 552.7 798.9 553.5 797.9Z" fill="white"/>
</mask>
<g mask="url(#mask4)">
<path d="M905.6 196.8C905.1 197 904.6 197.2 904.1 197.5L888.1 205.8C886.9 206.4 885.6 206.9 884.3 207.2L866.6 211.5C865.1 211.9 863.7 212.4 862.3 213.2L842.9 224.1C841.3 225 839.5 225.6 837.7 226L812.7 230.6L811.4 230.8L810.1 231L809.7 231.1C808 231.4 806.4 232 804.9 232.8L771.2 250.5C770.3 251 769.3 251.4 768.3 251.7L742.8 259.5C741.4 259.9 740.1 260.5 738.8 261.3L713 277.3C712.2 277.8 711.4 278.2 710.5 278.5L689.2 287.3C688 287.8 686.8 288.4 685.8 289.2L665.2 304C663.7 305.1 662.1 305.9 660.4 306.4L638.4 313.3C636.8 313.8 635.4 314.5 634 315.4L625 321.5L620.1 324.8L615.2 328.1L614.5 328.6C613.3 329.4 611.9 330.1 610.5 330.6L583.3 340C581.5 340.6 579.9 341.5 578.4 342.7L555.7 360.6C554.3 361.7 552.8 362.5 551.2 363.2L528 371.9C526.7 372.4 525.4 373 524.3 373.8L502 389.3C500.5 390.4 498.8 391.1 497.1 391.7L478.9 396.9C477.2 397.4 475.6 398.1 474.2 399.1L451.4 414.5C450.5 415.1 449.6 415.6 448.6 416.1L425.9 425.7C424.4 426.4 422.9 427.2 421.7 428.3L395.7 450.1C395 450.7 394.3 451.2 393.5 451.7L366.7 467L351.2 486.5L368.5 502.1C369.8 503.3 371.3 504.3 373 505L390 512.4C390.9 512.8 391.7 513.2 392.5 513.8L404.5 521.7C405.5 522.4 406.7 523 407.9 523.4L408.5 523.6L409.5 524L410.5 524.4L419.6 527.8C420.8 528.2 421.9 528.8 423 529.5L434 536.7C435.2 537.5 436.5 538.1 437.8 538.6L448.5 542.2C450.3 542.8 451.9 543.7 453.4 544.9L466.2 554.9C467.2 555.7 468.3 556.4 469.5 556.9L479.9 561.7C481.5 562.4 482.9 563.4 484.2 564.5L495.9 575.2C497 576.2 498.3 577.1 499.6 577.8L509.8 583C511.2 583.7 512.4 584.6 513.5 585.6L519.9 591.5C520.2 591.8 520.6 592.1 520.9 592.3L527.5 597.5L528.3 598.1L529.1 598.7L533.6 602.2C534.1 602.6 534.6 603 535.1 603.5L599.4 667.8C599.9 668.4 600.4 668.9 600.9 669.6L618 692.2C618.4 692.7 618.8 693.2 619.3 693.7L625 699.6L625.7 700.3L613.7 715.2C613.1 715.9 612.6 716.7 612.2 717.5L603.8 732.3C603.2 733.3 602.5 734.3 601.8 735.2L588.3 750.3C587.6 751.1 587 751.8 586.5 752.7L579.6 764C578.9 765.1 578.1 766.2 577.1 767.2L570.5 773.7C569.3 774.9 568.2 776.3 567.4 777.8L563.3 785.7C562.7 786.9 562 787.9 561.1 788.9L553.6 797.6C552.8 798.6 552.1 799.6 551.5 800.7L543.2 816.2L525.7 826.2L511.3 804.8L506.6 774.6C506.4 773.2 506 771.8 505.4 770.4L498.1 754C497.7 753 497.3 752 497.1 751L492.9 733.1C492.6 731.7 492.1 730.4 491.4 729.1L479.5 706.6C479.3 706.3 479.1 705.8 478.9 705.4L471.4 688.1C471 687.1 470.5 686.2 469.9 685.4L461.5 673.1L460.2 671.3L459.6 670.5L459 669.7L446.9 653C446.5 652.5 446.2 652 445.9 651.4L432.2 627.1C431.8 626.4 431.4 625.8 431 625.2L376.8 554C376.4 553.5 376 553 375.5 552.5L375.2 552.2L374.5 551.5L373.8 550.8L364.5 541.2C364.2 540.9 363.9 540.6 363.7 540.3L358.2 533.7C357.2 532.5 356.1 531.5 354.9 530.7L345.7 524.3C344.5 523.4 343.4 522.4 342.4 521.3L332.4 509.3C331.3 508 330 506.9 328.6 506L319.1 499.9C318 499.2 317 498.4 316.2 497.5L304.8 486C303.5 484.7 302 483.6 300.3 482.7L290.4 477.7C289.2 477.1 288 476.3 286.9 475.4L277.2 467C276.3 466.2 275.2 465.5 274.2 464.9L270.3 462.8L263.3 459C262.3 458.4 261.3 457.8 260.4 457C260.3 457 260.3 456.9 260.2 456.9L259.6 456.4L258.8 455.7L249.5 447.6C248.8 447 248 446.4 247.2 445.9L231.6 436.4C230.1 435.5 228.8 434.3 227.6 433L212.8 415.5L230.4 398.6L239.9 394.6L244.9 392.5H245L258.1 386.9C258.9 386.6 259.7 386.1 260.5 385.7L261.7 384.9L270.4 379.4L288.7 367.8C290.1 366.9 291.6 366.3 293.2 365.8L316.5 359.4C317.5 359.1 318.5 358.7 319.5 358.2L343.8 346.2C345.4 345.4 347 344.9 348.7 344.7L367.2 342C369 341.7 370.7 341.2 372.3 340.3L396.1 328.1C397.3 327.5 398.6 327 400 326.7L423.8 321.3C425.5 320.9 427.1 320.3 428.6 319.4L453.1 305C454.7 304.1 456.4 303.4 458.3 303L486.1 297.4C487.5 297.1 488.9 296.6 490.2 296L511 285.7C512.4 285 514 284.5 515.6 284.2L538 280.4C539.8 280.1 541.4 279.5 543 278.7L556.9 271.3L560.8 269.2L564.7 267.1L565 267C566.1 266.4 567.3 265.9 568.6 265.6L590.5 259.9C591.4 259.7 592.2 259.4 593.1 259L596.6 257.4L601 255.5L605.3 253.6L620.4 246.9C621.7 246.3 623.1 245.9 624.5 245.7L650.4 241.5C651.4 241.3 652.4 241.1 653.4 240.7L688.6 227.9C690.2 227.3 691.8 227 693.5 226.9L700.3 226.6L701.7 226.5L703 226.4L721.5 225.5C723.3 225.4 725.1 225 726.8 224.4L747.2 216.4C748.6 215.8 750.1 215.5 751.6 215.3L769.5 213.5C770.8 213.4 772.2 213.1 773.4 212.6L790.2 206.6C791.6 206.1 793.1 205.8 794.6 205.7L814.3 204.3C815.5 204.2 816.7 204 817.8 203.6L823 202L824.1 201.7L825.2 201.4L839.3 197.2C840.9 196.7 842.6 196.5 844.2 196.5L860.4 196.7C861.3 196.7 862.3 196.6 863.2 196.5L882.7 193.5C884.6 193.2 886.6 193.2 888.5 193.6L905.6 196.8Z" fill="white"/>
<path d="M551.8 275.1L538.6 281.4C540.2 281.1 541.7 280.5 543.2 279.7L552.5 274.8C552.2 274.9 552 275 551.8 275.1ZM888.5 192.4C886.5 192 884.4 192 882.4 192.3L862.9 195.3C862 195.4 861.2 195.5 860.3 195.5L844.1 195.3C842.3 195.3 840.6 195.5 838.9 196L825.5 200L824.4 200.3L823.3 200.6L817.4 202.4C816.3 202.7 815.2 202.9 814.1 203L794.4 204.4C792.8 204.5 791.2 204.9 789.7 205.4L772.9 211.4C771.7 211.8 770.5 212.1 769.2 212.2L751.3 214C749.7 214.2 748.1 214.5 746.7 215.1L726.3 223.1C724.7 223.7 723 224.1 721.3 224.2L703.6 225L702.3 225.1L700.9 225.2L693.2 225.6C691.4 225.7 689.7 226 688 226.6L652.8 239.4C651.9 239.7 650.9 240 650 240.1L624.1 244.3C622.6 244.5 621.2 245 619.8 245.6L608.8 250.5L604.6 252.4L600.2 254.4L592.4 257.9C591.6 258.2 590.8 258.5 590 258.7L568.1 264.4C567.7 264.5 567.4 264.6 567 264.7C566.1 265 565.2 265.4 564.3 265.9L563.9 266.1L560 268.2L542.3 277.6C540.8 278.4 539.2 278.9 537.6 279.2L515.2 283C513.5 283.3 511.9 283.8 510.4 284.6L489.6 294.9C488.4 295.5 487.1 296 485.7 296.2L457.9 301.8C456 302.2 454.1 302.9 452.4 303.9L427.9 318.3C426.5 319.1 425 319.7 423.4 320.1L399.6 325.5C398.2 325.8 396.8 326.3 395.5 327L371.7 339.2C370.2 340 368.6 340.5 366.9 340.8L348.4 343.5C346.6 343.8 344.8 344.3 343.2 345.1L318.9 357.1C318 357.5 317.1 357.9 316.1 358.2L292.8 364.6C291.1 365.1 289.5 365.7 288 366.7L270.2 378L259.8 384.6C259.1 385.1 258.3 385.4 257.6 385.8L244.5 391.4H244.4L239.6 393.5L235.7 395.2L229.9 397.7L211.5 415.4L227 433.6C228.2 435 229.6 436.2 231.2 437.2L246.8 446.7C247.6 447.1 248.3 447.7 248.9 448.3L258 456.2L258.8 456.9L259.6 457.6C260.6 458.5 261.7 459.2 262.8 459.8L270.3 463.8L273.8 465.7C274.8 466.3 275.8 466.9 276.7 467.7L286.5 476.2C287.6 477.2 288.8 478 290.2 478.7L300.1 483.7C301.7 484.5 303.1 485.5 304.3 486.8L315.5 498.3C316.4 499.3 317.5 500.1 318.6 500.8L328.1 506.9C329.4 507.8 330.6 508.8 331.7 510L341.7 522C342.7 523.2 343.9 524.3 345.2 525.2L354.4 531.6C355.6 532.4 356.6 533.4 357.5 534.5L363 541.1C363.3 541.5 363.7 541.9 363.9 542.1L373.1 551.6L373.8 552.3L374.5 553L374.9 553.4C375.3 553.8 375.7 554.3 376.1 554.8L430.3 626C430.7 626.6 431.1 627.2 431.5 627.8L445.2 652.1C445.5 652.7 445.9 653.3 446.3 653.8L458.6 670.7L459.2 671.5L459.8 672.3L460.9 673.9L469.3 686.2C469.8 687 470.3 687.9 470.7 688.8L478.2 706.1C478.4 706.5 478.6 707 478.8 707.3L490.7 729.8C491.3 731 491.8 732.3 492.1 733.6L496.3 751.5C496.5 752.6 496.9 753.7 497.4 754.7L504.7 771.1C505.3 772.3 505.6 773.7 505.9 775L510.7 805.4L525.7 827.7L544.2 817.1L552.7 801.3C553.2 800.3 553.9 799.3 554.6 798.4L562.1 789.7C563 788.7 563.8 787.5 564.4 786.3L568.5 778.4C569.3 777 570.2 775.7 571.4 774.5L578 768C579 767 579.9 765.9 580.6 764.7L587.5 753.4C588 752.6 588.5 751.8 589.2 751.2L602.7 736.1C603.5 735.2 604.3 734.1 604.9 733L613.3 718.2C613.7 717.5 614.2 716.7 614.7 716.1L626.6 701.3L625.9 700.6L625.2 699.9L613.1 714.9C612.5 715.7 612 716.5 611.5 717.3L603.1 732.1C602.6 733.1 601.9 734 601.2 734.8L587.7 750C587 750.8 586.4 751.6 585.8 752.5L578.9 763.8C578.2 764.9 577.4 765.9 576.5 766.8L569.9 773.3C568.6 774.6 567.5 776.1 566.7 777.7L562.6 785.6C562 786.7 561.3 787.7 560.5 788.6L553 797.3C552.1 798.3 551.4 799.4 550.8 800.6L542.6 815.9L526.2 825.3L512.2 804.8L507.5 774.8C507.3 773.3 506.8 771.8 506.2 770.4L498.9 754C498.5 753.1 498.2 752.1 498 751.2L493.8 733.3C493.5 731.8 492.9 730.4 492.2 729.1L480.3 706.6C480.1 706.3 479.9 705.9 479.8 705.5L472.3 688.2C471.9 687.2 471.3 686.2 470.7 685.3L462.3 672.9L460.8 670.8L460.2 670L459.6 669.1L447.7 652.7C447.3 652.2 447 651.7 446.7 651.2L433 626.9C432.6 626.2 432.2 625.5 431.7 624.9L377.5 553.7C377.1 553.1 376.6 552.6 376.2 552.1L376 551.9L375.3 551.2L374.6 550.5L365.2 540.7C364.9 540.4 364.6 540.1 364.4 539.8L358.9 533.2C357.9 532 356.7 530.9 355.4 530L346.2 523.6C345 522.8 344 521.8 343.1 520.8L333.1 508.8C332 507.4 330.6 506.2 329.1 505.3L319.6 499.2C318.6 498.6 317.7 497.8 316.8 496.9L305.6 485.4C304.2 484 302.6 482.8 300.9 482L291 477C289.8 476.4 288.7 475.7 287.8 474.8L278 466.3C277 465.4 275.9 464.7 274.8 464.1L270.4 461.7L263.9 458.2C263 457.7 262.2 457.2 261.5 456.5C261.4 456.4 261.2 456.3 261.1 456.2L260.7 455.9L259.9 455.2L250.4 446.9C249.6 446.2 248.8 445.7 248 445.1L232.4 435.6C231 434.7 229.7 433.7 228.6 432.4L214.4 415.6L231.2 399.4L245.4 393.3C245.4 393.3 245.4 393.3 245.5 393.3L258.7 387.7C259.6 387.3 260.4 386.9 261.2 386.4L262.3 385.7L266.8 382.9L270.6 380.5L289.5 368.6C290.8 367.8 292.2 367.2 293.7 366.8L317.1 360.4C318.2 360.1 319.2 359.7 320.2 359.2L344.5 347.2C346 346.5 347.5 346 349.1 345.8L367.2 343C369.1 342.7 370.9 342.1 372.6 341.2L396.4 329C397.6 328.4 398.8 328 400 327.7L423.8 322.3C425.6 321.9 427.3 321.2 428.8 320.3L453.3 305.9C454.8 305 456.4 304.4 458.1 304L485.9 298.4C487.4 298.1 488.9 297.6 490.3 296.9L511.1 286.6C512.5 285.9 513.9 285.5 515.4 285.2L537.8 281.4C538 281.4 538.3 281.3 538.5 281.3C540.1 281 541.6 280.4 543.1 279.6L552.4 274.7L557.2 272.2L561.1 270.1L565.2 267.9C566.3 267.3 567.4 266.9 568.6 266.6L590.5 260.9C591.2 260.7 591.9 260.5 592.5 260.2C592.7 260.1 593 260 593.2 259.9L596.8 258.3L601.1 256.4L620.5 247.8C621.7 247.2 623 246.9 624.3 246.7L650.2 242.5C651.3 242.3 652.4 242.1 653.4 241.7L688.6 228.9C690.1 228.4 691.6 228.1 693.2 228L699.1 227.7L700.4 227.6L701.7 227.5L721.1 226.6C723 226.5 724.9 226.1 726.7 225.4L747.1 217.4C748.4 216.9 749.8 216.5 751.2 216.4L769.1 214.6C770.5 214.5 771.9 214.1 773.3 213.7L790.1 207.7C791.4 207.2 792.8 206.9 794.2 206.8L813.9 205.4C815.2 205.3 816.4 205.1 817.7 204.7L822.3 203.3L823.4 203L824.5 202.7L839.2 198.3C840.7 197.9 842.3 197.6 843.8 197.7L860 197.9C861 197.9 862 197.8 862.9 197.7L882.4 194.7C884.2 194.4 886 194.4 887.8 194.8L903.7 198C904.2 197.7 904.7 197.5 905.2 197.3C905.7 197.1 906.2 196.9 906.8 196.7V196.5L888.5 192.4Z" fill="#DCDCDC"/>
</g>
</svg>
